<svg width="1440" height="47" viewBox="0 0 1440 47" fill="none" xmlns="http://www.w3.org/2000/svg">
<rect x="-3.90027" width="1447.8" height="44.8698" fill="#BFE2F2"/>
<path d="M22.9737 16.1514C22.771 15.9487 22.7412 15.5494 22.8842 14.9533C23.0273 14.3573 23.3134 13.4393 23.7426 12.1995C24.1956 10.9358 24.5175 9.92252 24.7082 9.15955C24.9109 8.38466 24.9586 7.75283 24.8513 7.26406C23.2777 5.69044 22.3776 4.76654 22.1511 4.49235L23.1882 3.45519C23.5459 3.93204 24.2492 4.69501 25.2983 5.74409C26.109 6.55474 26.9494 6.97794 27.8197 7.01371C28.7138 7.04947 29.6198 6.69183 30.5377 5.94079L25.6202 1.02324L26.6216 0.0218477L31.557 4.95728C32.2604 4.18239 32.6299 3.40751 32.6657 2.63262C32.7253 1.85773 32.3319 0.999397 31.4855 0.0576118L29.1251 -2.33858L30.0549 -3.33997L39.7112 6.31631L38.7277 7.29982L35.0261 3.59825C35.1453 4.81422 34.6923 5.97059 33.6671 7.06736L36.0633 9.46354L35.0619 10.4649L32.6121 8.0151C31.7537 8.63501 30.8179 9.01053 29.8046 9.14167C28.8032 9.26088 27.8495 9.1059 26.9435 8.67674C27.0865 9.20127 27.0865 9.82118 26.9435 10.5365C26.8242 11.2517 26.5977 12.2055 26.2639 13.3976C25.9898 14.4586 25.799 15.2454 25.6917 15.758C25.6083 16.2706 25.65 16.6461 25.8169 16.8846L26.2818 17.7071L25.4056 18.5834L22.9737 16.1514Z" fill="#2E3FFB"/>
<path d="M39.1433 43.5378C38.9407 43.3351 38.9109 42.9357 39.0539 42.3397C39.197 41.7436 39.4831 40.8257 39.9123 39.5858C40.3653 38.3222 40.6871 37.3089 40.8779 36.5459C41.0806 35.771 41.1282 35.1392 41.0209 34.6504C39.4473 33.0768 38.5473 32.1529 38.3208 31.8787L39.3579 30.8415C39.7156 31.3184 40.4189 32.0814 41.468 33.1304C42.2786 33.9411 43.1191 34.3643 43.9894 34.4001C44.8835 34.4358 45.7895 34.0782 46.7074 33.3271L41.7899 28.4096L42.7913 27.4082L47.7267 32.3436C48.4301 31.5687 48.7996 30.7939 48.8354 30.019C48.895 29.2441 48.5016 28.3857 47.6552 27.444L45.2947 25.0478L46.2246 24.0464L55.8809 33.7027L54.8974 34.6862L51.1958 30.9846C51.315 32.2006 50.862 33.3569 49.8368 34.4537L52.233 36.8499L51.2316 37.8513L48.7817 35.4015C47.9234 36.0214 46.9876 36.3969 45.9743 36.528C44.9729 36.6472 44.0192 36.4923 43.1131 36.0631C43.2562 36.5876 43.2562 37.2075 43.1131 37.9228C42.9939 38.6381 42.7674 39.5918 42.4336 40.7839C42.1594 41.8449 41.9687 42.6317 41.8614 43.1444C41.778 43.657 41.8197 44.0325 41.9866 44.2709L42.4515 45.0935L41.5753 45.9697L39.1433 43.5378Z" fill="#2E3FFB"/>
<path d="M89.1049 43.5378C88.9023 43.3351 88.8725 42.9357 89.0155 42.3397C89.1586 41.7436 89.4447 40.8257 89.8739 39.5858C90.3269 38.3222 90.6488 37.3089 90.8395 36.5459C91.0422 35.771 91.0898 35.1392 90.9826 34.6504C89.4089 33.0768 88.5089 32.1529 88.2824 31.8787L89.3195 30.8415C89.6772 31.3184 90.3805 32.0814 91.4296 33.1304C92.2403 33.9411 93.0807 34.3643 93.951 34.4001C94.8451 34.4358 95.7511 34.0782 96.669 33.3271L91.7515 28.4096L92.7529 27.4082L97.6883 32.3436C98.3917 31.5687 98.7612 30.7939 98.797 30.019C98.8566 29.2441 98.4632 28.3857 97.6168 27.444L95.2564 25.0478L96.1862 24.0464L105.842 33.7027L104.859 34.6862L101.157 30.9846C101.277 32.2006 100.824 33.3569 99.7984 34.4537L102.195 36.8499L101.193 37.8513L98.7433 35.4015C97.885 36.0214 96.9492 36.3969 95.9359 36.528C94.9345 36.6472 93.9808 36.4923 93.0747 36.0631C93.2178 36.5876 93.2178 37.2075 93.0747 37.9228C92.9555 38.6381 92.729 39.5918 92.3952 40.7839C92.121 41.8449 91.9303 42.6317 91.823 43.1444C91.7396 43.657 91.7813 44.0325 91.9482 44.2709L92.4131 45.0935L91.5369 45.9697L89.1049 43.5378Z" fill="#2E3FFB"/>
<path d="M65.7648 17.863C65.5621 17.6603 65.5323 17.2609 65.6754 16.6649C65.8184 16.0688 66.1046 15.1509 66.5337 13.911C66.9867 12.6474 67.3086 11.6341 67.4993 10.8711C67.702 10.0962 67.7497 9.46438 67.6424 8.97561C66.0688 7.40199 65.1687 6.47809 64.9422 6.2039L65.9794 5.16674C66.337 5.64359 67.0404 6.40656 68.0895 7.45564C68.9001 8.26629 69.7406 8.68949 70.6108 8.72526C71.5049 8.76102 72.4109 8.40338 73.3289 7.65234L68.4113 2.73479L69.4127 1.7334L74.3482 6.66883C75.0515 5.89394 75.4211 5.11905 75.4568 4.34417C75.5164 3.56928 75.123 2.71095 74.2766 1.76916L71.9162 -0.627028L72.8461 -1.62842L82.5023 8.02786L81.5188 9.01137L77.8173 5.3098C77.9365 6.52577 77.4835 7.68214 76.4582 8.7789L78.8544 11.1751L77.853 12.1765L75.4032 9.72665C74.5449 10.3466 73.609 10.7221 72.5957 10.8532C71.5943 10.9724 70.6406 10.8175 69.7346 10.3883C69.8777 10.9128 69.8777 11.5327 69.7346 12.248C69.6154 12.9633 69.3889 13.917 69.0551 15.1091C68.7809 16.1701 68.5902 16.9569 68.4829 17.4696C68.3994 17.9822 68.4411 18.3577 68.608 18.5961L69.073 19.4187L68.1967 20.2949L65.7648 17.863Z" fill="#2E3FFB"/>
<path d="M129.927 16.1514C129.724 15.9487 129.694 15.5494 129.837 14.9533C129.98 14.3573 130.266 13.4393 130.696 12.1995C131.149 10.9358 131.47 9.92252 131.661 9.15955C131.864 8.38466 131.912 7.75283 131.804 7.26406C130.231 5.69044 129.331 4.76654 129.104 4.49235L130.141 3.45519C130.499 3.93204 131.202 4.69501 132.251 5.74409C133.062 6.55474 133.902 6.97794 134.773 7.01371C135.667 7.04947 136.573 6.69183 137.491 5.94079L132.573 1.02324L133.575 0.0218477L138.51 4.95728C139.213 4.18239 139.583 3.40751 139.619 2.63262C139.678 1.85773 139.285 0.999397 138.438 0.0576118L136.078 -2.33858L137.008 -3.33997L146.664 6.31631L145.681 7.29982L141.979 3.59825C142.098 4.81422 141.645 5.97059 140.62 7.06736L143.016 9.46354L142.015 10.4649L139.565 8.0151C138.707 8.63501 137.771 9.01053 136.758 9.14167C135.756 9.26088 134.802 9.1059 133.896 8.67674C134.04 9.20127 134.04 9.82118 133.896 10.5365C133.777 11.2517 133.551 12.2055 133.217 13.3976C132.943 14.4586 132.752 15.2454 132.645 15.758C132.561 16.2706 132.603 16.6461 132.77 16.8846L133.235 17.7071L132.359 18.5834L129.927 16.1514Z" fill="#2E3FFB"/>
<path d="M146.096 43.5378C145.894 43.3351 145.864 42.9357 146.007 42.3397C146.15 41.7436 146.436 40.8257 146.865 39.5858C147.318 38.3222 147.64 37.3089 147.831 36.5459C148.034 35.771 148.081 35.1392 147.974 34.6504C146.4 33.0768 145.5 32.1529 145.274 31.8787L146.311 30.8415C146.669 31.3184 147.372 32.0814 148.421 33.1304C149.232 33.9411 150.072 34.3643 150.942 34.4001C151.836 34.4358 152.742 34.0782 153.66 33.3271L148.743 28.4096L149.744 27.4082L154.68 32.3436C155.383 31.5687 155.753 30.7939 155.788 30.019C155.848 29.2441 155.455 28.3857 154.608 27.444L152.248 25.0478L153.178 24.0464L162.834 33.7027L161.85 34.6862L158.149 30.9846C158.268 32.2006 157.815 33.3569 156.79 34.4537L159.186 36.8499L158.185 37.8513L155.735 35.4015C154.876 36.0214 153.941 36.3969 152.927 36.528C151.926 36.6472 150.972 36.4923 150.066 36.0631C150.209 36.5876 150.209 37.2075 150.066 37.9228C149.947 38.6381 149.72 39.5918 149.387 40.7839C149.112 41.8449 148.922 42.6317 148.814 43.1444C148.731 43.657 148.773 44.0325 148.94 44.2709L149.405 45.0935L148.528 45.9697L146.096 43.5378Z" fill="#2E3FFB"/>
<path d="M196.058 43.5378C195.855 43.3351 195.825 42.9357 195.969 42.3397C196.112 41.7436 196.398 40.8257 196.827 39.5858C197.28 38.3222 197.602 37.3089 197.792 36.5459C197.995 35.771 198.043 35.1392 197.936 34.6504C196.362 33.0768 195.462 32.1529 195.235 31.8787L196.273 30.8415C196.63 31.3184 197.334 32.0814 198.383 33.1304C199.193 33.9411 200.034 34.3643 200.904 34.4001C201.798 34.4358 202.704 34.0782 203.622 33.3271L198.704 28.4096L199.706 27.4082L204.641 32.3436C205.345 31.5687 205.714 30.7939 205.75 30.019C205.81 29.2441 205.416 28.3857 204.57 27.444L202.209 25.0478L203.139 24.0464L212.795 33.7027L211.812 34.6862L208.11 30.9846C208.23 32.2006 207.777 33.3569 206.751 34.4537L209.148 36.8499L208.146 37.8513L205.696 35.4015C204.838 36.0214 203.902 36.3969 202.889 36.528C201.887 36.6472 200.934 36.4923 200.028 36.0631C200.171 36.5876 200.171 37.2075 200.028 37.9228C199.909 38.6381 199.682 39.5918 199.348 40.7839C199.074 41.8449 198.883 42.6317 198.776 43.1444C198.693 43.657 198.734 44.0325 198.901 44.2709L199.366 45.0935L198.49 45.9697L196.058 43.5378Z" fill="#2E3FFB"/>
<path d="M172.718 17.863C172.515 17.6603 172.485 17.2609 172.628 16.6649C172.772 16.0688 173.058 15.1509 173.487 13.911C173.94 12.6474 174.262 11.6341 174.452 10.8711C174.655 10.0962 174.703 9.46438 174.595 8.97561C173.022 7.40199 172.122 6.47809 171.895 6.2039L172.932 5.16674C173.29 5.64359 173.993 6.40656 175.043 7.45564C175.853 8.26629 176.694 8.68949 177.564 8.72526C178.458 8.76102 179.364 8.40338 180.282 7.65234L175.364 2.73479L176.366 1.7334L181.301 6.66883C182.005 5.89394 182.374 5.11905 182.41 4.34417C182.47 3.56928 182.076 2.71095 181.23 1.76916L178.869 -0.627028L179.799 -1.62842L189.455 8.02786L188.472 9.01137L184.77 5.3098C184.89 6.52577 184.437 7.68214 183.411 8.7789L185.807 11.1751L184.806 12.1765L182.356 9.72665C181.498 10.3466 180.562 10.7221 179.549 10.8532C178.547 10.9724 177.594 10.8175 176.688 10.3883C176.831 10.9128 176.831 11.5327 176.688 12.248C176.568 12.9633 176.342 13.917 176.008 15.1091C175.734 16.1701 175.543 16.9569 175.436 17.4696C175.352 17.9822 175.394 18.3577 175.561 18.5961L176.026 19.4187L175.15 20.2949L172.718 17.863Z" fill="#2E3FFB"/>
<path d="M236.88 16.1514C236.677 15.9487 236.647 15.5494 236.79 14.9533C236.933 14.3573 237.22 13.4393 237.649 12.1995C238.102 10.9358 238.424 9.92252 238.614 9.15955C238.817 8.38466 238.865 7.75283 238.757 7.26406C237.184 5.69044 236.284 4.76654 236.057 4.49235L237.094 3.45519C237.452 3.93204 238.155 4.69501 239.204 5.74409C240.015 6.55474 240.856 6.97794 241.726 7.01371C242.62 7.04947 243.526 6.69183 244.444 5.94079L239.526 1.02324L240.528 0.0218477L245.463 4.95728C246.166 4.18239 246.536 3.40751 246.572 2.63262C246.631 1.85773 246.238 0.999397 245.392 0.0576118L243.031 -2.33858L243.961 -3.33997L253.617 6.31631L252.634 7.29982L248.932 3.59825C249.051 4.81422 248.598 5.97059 247.573 7.06736L249.969 9.46354L248.968 10.4649L246.518 8.0151C245.66 8.63501 244.724 9.01053 243.711 9.14167C242.709 9.26088 241.756 9.1059 240.85 8.67674C240.993 9.20127 240.993 9.82118 240.85 10.5365C240.73 11.2517 240.504 12.2055 240.17 13.3976C239.896 14.4586 239.705 15.2454 239.598 15.758C239.514 16.2706 239.556 16.6461 239.723 16.8846L240.188 17.7071L239.312 18.5834L236.88 16.1514Z" fill="#2E3FFB"/>
<path d="M253.049 43.5378C252.847 43.3351 252.817 42.9357 252.96 42.3397C253.103 41.7436 253.389 40.8257 253.818 39.5858C254.271 38.3222 254.593 37.3089 254.784 36.5459C254.987 35.771 255.034 35.1392 254.927 34.6504C253.353 33.0768 252.453 32.1529 252.227 31.8787L253.264 30.8415C253.622 31.3184 254.325 32.0814 255.374 33.1304C256.185 33.9411 257.025 34.3643 257.895 34.4001C258.79 34.4358 259.696 34.0782 260.614 33.3271L255.696 28.4096L256.697 27.4082L261.633 32.3436C262.336 31.5687 262.706 30.7939 262.742 30.019C262.801 29.2441 262.408 28.3857 261.561 27.444L259.201 25.0478L260.131 24.0464L269.787 33.7027L268.804 34.6862L265.102 30.9846C265.221 32.2006 264.768 33.3569 263.743 34.4537L266.139 36.8499L265.138 37.8513L262.688 35.4015C261.83 36.0214 260.894 36.3969 259.88 36.528C258.879 36.6472 257.925 36.4923 257.019 36.0631C257.162 36.5876 257.162 37.2075 257.019 37.9228C256.9 38.6381 256.674 39.5918 256.34 40.7839C256.066 41.8449 255.875 42.6317 255.768 43.1444C255.684 43.657 255.726 44.0325 255.893 44.2709L256.358 45.0935L255.481 45.9697L253.049 43.5378Z" fill="#2E3FFB"/>
<path d="M303.011 43.5378C302.808 43.3351 302.779 42.9357 302.922 42.3397C303.065 41.7436 303.351 40.8257 303.78 39.5858C304.233 38.3222 304.555 37.3089 304.746 36.5459C304.948 35.771 304.996 35.1392 304.889 34.6504C303.315 33.0768 302.415 32.1529 302.188 31.8787L303.226 30.8415C303.583 31.3184 304.287 32.0814 305.336 33.1304C306.146 33.9411 306.987 34.3643 307.857 34.4001C308.751 34.4358 309.657 34.0782 310.575 33.3271L305.658 28.4096L306.659 27.4082L311.594 32.3436C312.298 31.5687 312.667 30.7939 312.703 30.019C312.763 29.2441 312.369 28.3857 311.523 27.444L309.162 25.0478L310.092 24.0464L319.749 33.7027L318.765 34.6862L315.064 30.9846C315.183 32.2006 314.73 33.3569 313.705 34.4537L316.101 36.8499L315.099 37.8513L312.649 35.4015C311.791 36.0214 310.855 36.3969 309.842 36.528C308.841 36.6472 307.887 36.4923 306.981 36.0631C307.124 36.5876 307.124 37.2075 306.981 37.9228C306.862 38.6381 306.635 39.5918 306.301 40.7839C306.027 41.8449 305.836 42.6317 305.729 43.1444C305.646 43.657 305.687 44.0325 305.854 44.2709L306.319 45.0935L305.443 45.9697L303.011 43.5378Z" fill="#2E3FFB"/>
<path d="M279.671 17.863C279.468 17.6603 279.438 17.2609 279.582 16.6649C279.725 16.0688 280.011 15.1509 280.44 13.911C280.893 12.6474 281.215 11.6341 281.406 10.8711C281.608 10.0962 281.656 9.46438 281.549 8.97561C279.975 7.40199 279.075 6.47809 278.848 6.2039L279.886 5.16674C280.243 5.64359 280.947 6.40656 281.996 7.45564C282.806 8.26629 283.647 8.68949 284.517 8.72526C285.411 8.76102 286.317 8.40338 287.235 7.65234L282.317 2.73479L283.319 1.7334L288.254 6.66883C288.958 5.89394 289.327 5.11905 289.363 4.34417C289.423 3.56928 289.029 2.71095 288.183 1.76916L285.822 -0.627028L286.752 -1.62842L296.409 8.02786L295.425 9.01137L291.723 5.3098C291.843 6.52577 291.39 7.68214 290.364 8.7789L292.761 11.1751L291.759 12.1765L289.309 9.72665C288.451 10.3466 287.515 10.7221 286.502 10.8532C285.5 10.9724 284.547 10.8175 283.641 10.3883C283.784 10.9128 283.784 11.5327 283.641 12.248C283.522 12.9633 283.295 13.917 282.961 15.1091C282.687 16.1701 282.496 16.9569 282.389 17.4696C282.306 17.9822 282.347 18.3577 282.514 18.5961L282.979 19.4187L282.103 20.2949L279.671 17.863Z" fill="#2E3FFB"/>
<path d="M343.833 16.1514C343.63 15.9487 343.6 15.5494 343.744 14.9533C343.887 14.3573 344.173 13.4393 344.602 12.1995C345.055 10.9358 345.377 9.92252 345.567 9.15955C345.77 8.38466 345.818 7.75283 345.711 7.26406C344.137 5.69044 343.237 4.76654 343.01 4.49235L344.047 3.45519C344.405 3.93204 345.108 4.69501 346.158 5.74409C346.968 6.55474 347.809 6.97794 348.679 7.01371C349.573 7.04947 350.479 6.69183 351.397 5.94079L346.479 1.02324L347.481 0.0218477L352.416 4.95728C353.12 4.18239 353.489 3.40751 353.525 2.63262C353.585 1.85773 353.191 0.999397 352.345 0.0576118L349.984 -2.33858L350.914 -3.33997L360.57 6.31631L359.587 7.29982L355.885 3.59825C356.005 4.81422 355.552 5.97059 354.526 7.06736L356.923 9.46354L355.921 10.4649L353.471 8.0151C352.613 8.63501 351.677 9.01053 350.664 9.14167C349.662 9.26088 348.709 9.1059 347.803 8.67674C347.946 9.20127 347.946 9.82118 347.803 10.5365C347.684 11.2517 347.457 12.2055 347.123 13.3976C346.849 14.4586 346.658 15.2454 346.551 15.758C346.468 16.2706 346.509 16.6461 346.676 16.8846L347.141 17.7071L346.265 18.5834L343.833 16.1514Z" fill="#2E3FFB"/>
<path d="M360.003 43.5378C359.8 43.3351 359.77 42.9357 359.913 42.3397C360.056 41.7436 360.342 40.8257 360.772 39.5858C361.225 38.3222 361.546 37.3089 361.737 36.5459C361.94 35.771 361.987 35.1392 361.88 34.6504C360.307 33.0768 359.407 32.1529 359.18 31.8787L360.217 30.8415C360.575 31.3184 361.278 32.0814 362.327 33.1304C363.138 33.9411 363.978 34.3643 364.849 34.4001C365.743 34.4358 366.649 34.0782 367.567 33.3271L362.649 28.4096L363.651 27.4082L368.586 32.3436C369.289 31.5687 369.659 30.7939 369.695 30.019C369.754 29.2441 369.361 28.3857 368.514 27.444L366.154 25.0478L367.084 24.0464L376.74 33.7027L375.757 34.6862L372.055 30.9846C372.174 32.2006 371.721 33.3569 370.696 34.4537L373.092 36.8499L372.091 37.8513L369.641 35.4015C368.783 36.0214 367.847 36.3969 366.834 36.528C365.832 36.6472 364.878 36.4923 363.972 36.0631C364.115 36.5876 364.115 37.2075 363.972 37.9228C363.853 38.6381 363.627 39.5918 363.293 40.7839C363.019 41.8449 362.828 42.6317 362.721 43.1444C362.637 43.657 362.679 44.0325 362.846 44.2709L363.311 45.0935L362.435 45.9697L360.003 43.5378Z" fill="#2E3FFB"/>
<path d="M409.964 43.5378C409.762 43.3351 409.732 42.9357 409.875 42.3397C410.018 41.7436 410.304 40.8257 410.733 39.5858C411.186 38.3222 411.508 37.3089 411.699 36.5459C411.901 35.771 411.949 35.1392 411.842 34.6504C410.268 33.0768 409.368 32.1529 409.142 31.8787L410.179 30.8415C410.536 31.3184 411.24 32.0814 412.289 33.1304C413.1 33.9411 413.94 34.3643 414.81 34.4001C415.704 34.4358 416.61 34.0782 417.528 33.3271L412.611 28.4096L413.612 27.4082L418.548 32.3436C419.251 31.5687 419.621 30.7939 419.656 30.019C419.716 29.2441 419.323 28.3857 418.476 27.444L416.116 25.0478L417.046 24.0464L426.702 33.7027L425.718 34.6862L422.017 30.9846C422.136 32.2006 421.683 33.3569 420.658 34.4537L423.054 36.8499L422.052 37.8513L419.603 35.4015C418.744 36.0214 417.808 36.3969 416.795 36.528C415.794 36.6472 414.84 36.4923 413.934 36.0631C414.077 36.5876 414.077 37.2075 413.934 37.9228C413.815 38.6381 413.588 39.5918 413.255 40.7839C412.98 41.8449 412.79 42.6317 412.682 43.1444C412.599 43.657 412.641 44.0325 412.807 44.2709L413.272 45.0935L412.396 45.9697L409.964 43.5378Z" fill="#2E3FFB"/>
<path d="M386.624 17.863C386.421 17.6603 386.392 17.2609 386.535 16.6649C386.678 16.0688 386.964 15.1509 387.393 13.911C387.846 12.6474 388.168 11.6341 388.359 10.8711C388.561 10.0962 388.609 9.46438 388.502 8.97561C386.928 7.40199 386.028 6.47809 385.802 6.2039L386.839 5.16674C387.196 5.64359 387.9 6.40656 388.949 7.45564C389.759 8.26629 390.6 8.68949 391.47 8.72526C392.364 8.76102 393.27 8.40338 394.188 7.65234L389.271 2.73479L390.272 1.7334L395.207 6.66883C395.911 5.89394 396.28 5.11905 396.316 4.34417C396.376 3.56928 395.982 2.71095 395.136 1.76916L392.776 -0.627028L393.705 -1.62842L403.362 8.02786L402.378 9.01137L398.677 5.3098C398.796 6.52577 398.343 7.68214 397.318 8.7789L399.714 11.1751L398.712 12.1765L396.263 9.72665C395.404 10.3466 394.468 10.7221 393.455 10.8532C392.454 10.9724 391.5 10.8175 390.594 10.3883C390.737 10.9128 390.737 11.5327 390.594 12.248C390.475 12.9633 390.248 13.917 389.914 15.1091C389.64 16.1701 389.449 16.9569 389.342 17.4696C389.259 17.9822 389.3 18.3577 389.467 18.5961L389.932 19.4187L389.056 20.2949L386.624 17.863Z" fill="#2E3FFB"/>
<path d="M450.786 16.1514C450.583 15.9487 450.553 15.5494 450.696 14.9533C450.839 14.3573 451.126 13.4393 451.555 12.1995C452.008 10.9358 452.33 9.92252 452.52 9.15955C452.723 8.38466 452.771 7.75283 452.663 7.26406C451.09 5.69044 450.19 4.76654 449.963 4.49235L451 3.45519C451.358 3.93204 452.061 4.69501 453.111 5.74409C453.921 6.55474 454.762 6.97794 455.632 7.01371C456.526 7.04947 457.432 6.69183 458.35 5.94079L453.432 1.02324L454.434 0.0218477L459.369 4.95728C460.073 4.18239 460.442 3.40751 460.478 2.63262C460.538 1.85773 460.144 0.999397 459.298 0.0576118L456.937 -2.33858L457.867 -3.33997L467.523 6.31631L466.54 7.29982L462.838 3.59825C462.958 4.81422 462.505 5.97059 461.479 7.06736L463.875 9.46354L462.874 10.4649L460.424 8.0151C459.566 8.63501 458.63 9.01053 457.617 9.14167C456.615 9.26088 455.662 9.1059 454.756 8.67674C454.899 9.20127 454.899 9.82118 454.756 10.5365C454.636 11.2517 454.41 12.2055 454.076 13.3976C453.802 14.4586 453.611 15.2454 453.504 15.758C453.42 16.2706 453.462 16.6461 453.629 16.8846L454.094 17.7071L453.218 18.5834L450.786 16.1514Z" fill="#2E3FFB"/>
<path d="M466.956 43.5378C466.753 43.3351 466.723 42.9357 466.866 42.3397C467.009 41.7436 467.295 40.8257 467.725 39.5858C468.178 38.3222 468.499 37.3089 468.69 36.5459C468.893 35.771 468.94 35.1392 468.833 34.6504C467.26 33.0768 466.36 32.1529 466.133 31.8787L467.17 30.8415C467.528 31.3184 468.231 32.0814 469.28 33.1304C470.091 33.9411 470.931 34.3643 471.802 34.4001C472.696 34.4358 473.602 34.0782 474.52 33.3271L469.602 28.4096L470.604 27.4082L475.539 32.3436C476.242 31.5687 476.612 30.7939 476.648 30.019C476.707 29.2441 476.314 28.3857 475.467 27.444L473.107 25.0478L474.037 24.0464L483.693 33.7027L482.71 34.6862L479.008 30.9846C479.127 32.2006 478.674 33.3569 477.649 34.4537L480.045 36.8499L479.044 37.8513L476.594 35.4015C475.736 36.0214 474.8 36.3969 473.787 36.528C472.785 36.6472 471.831 36.4923 470.925 36.0631C471.068 36.5876 471.068 37.2075 470.925 37.9228C470.806 38.6381 470.58 39.5918 470.246 40.7839C469.972 41.8449 469.781 42.6317 469.674 43.1444C469.59 43.657 469.632 44.0325 469.799 44.2709L470.264 45.0935L469.388 45.9697L466.956 43.5378Z" fill="#2E3FFB"/>
<path d="M516.917 43.5378C516.715 43.3351 516.685 42.9357 516.828 42.3397C516.971 41.7436 517.257 40.8257 517.686 39.5858C518.139 38.3222 518.461 37.3089 518.652 36.5459C518.854 35.771 518.902 35.1392 518.795 34.6504C517.221 33.0768 516.321 32.1529 516.095 31.8787L517.132 30.8415C517.489 31.3184 518.193 32.0814 519.242 33.1304C520.053 33.9411 520.893 34.3643 521.763 34.4001C522.657 34.4358 523.563 34.0782 524.481 33.3271L519.564 28.4096L520.565 27.4082L525.501 32.3436C526.204 31.5687 526.573 30.7939 526.609 30.019C526.669 29.2441 526.275 28.3857 525.429 27.444L523.069 25.0478L523.998 24.0464L533.655 33.7027L532.671 34.6862L528.97 30.9846C529.089 32.2006 528.636 33.3569 527.611 34.4537L530.007 36.8499L529.005 37.8513L526.556 35.4015C525.697 36.0214 524.761 36.3969 523.748 36.528C522.747 36.6472 521.793 36.4923 520.887 36.0631C521.03 36.5876 521.03 37.2075 520.887 37.9228C520.768 38.6381 520.541 39.5918 520.207 40.7839C519.933 41.8449 519.743 42.6317 519.635 43.1444C519.552 43.657 519.594 44.0325 519.76 44.2709L520.225 45.0935L519.349 45.9697L516.917 43.5378Z" fill="#2E3FFB"/>
<path d="M493.577 17.863C493.375 17.6603 493.345 17.2609 493.488 16.6649C493.631 16.0688 493.917 15.1509 494.346 13.911C494.799 12.6474 495.121 11.6341 495.312 10.8711C495.514 10.0962 495.562 9.46438 495.455 8.97561C493.881 7.40199 492.981 6.47809 492.755 6.2039L493.792 5.16674C494.149 5.64359 494.853 6.40656 495.902 7.45564C496.712 8.26629 497.553 8.68949 498.423 8.72526C499.317 8.76102 500.223 8.40338 501.141 7.65234L496.224 2.73479L497.225 1.7334L502.161 6.66883C502.864 5.89394 503.233 5.11905 503.269 4.34417C503.329 3.56928 502.935 2.71095 502.089 1.76916L499.729 -0.627028L500.658 -1.62842L510.315 8.02786L509.331 9.01137L505.63 5.3098C505.749 6.52577 505.296 7.68214 504.271 8.7789L506.667 11.1751L505.665 12.1765L503.216 9.72665C502.357 10.3466 501.421 10.7221 500.408 10.8532C499.407 10.9724 498.453 10.8175 497.547 10.3883C497.69 10.9128 497.69 11.5327 497.547 12.248C497.428 12.9633 497.201 13.917 496.867 15.1091C496.593 16.1701 496.403 16.9569 496.295 17.4696C496.212 17.9822 496.254 18.3577 496.42 18.5961L496.885 19.4187L496.009 20.2949L493.577 17.863Z" fill="#2E3FFB"/>
<path d="M557.739 16.1514C557.536 15.9487 557.507 15.5494 557.65 14.9533C557.793 14.3573 558.079 13.4393 558.508 12.1995C558.961 10.9358 559.283 9.92252 559.474 9.15955C559.676 8.38466 559.724 7.75283 559.617 7.26406C558.043 5.69044 557.143 4.76654 556.917 4.49235L557.954 3.45519C558.311 3.93204 559.015 4.69501 560.064 5.74409C560.874 6.55474 561.715 6.97794 562.585 7.01371C563.479 7.04947 564.385 6.69183 565.303 5.94079L560.386 1.02324L561.387 0.0218477L566.323 4.95728C567.026 4.18239 567.395 3.40751 567.431 2.63262C567.491 1.85773 567.097 0.999397 566.251 0.0576118L563.891 -2.33858L564.82 -3.33997L574.477 6.31631L573.493 7.29982L569.792 3.59825C569.911 4.81422 569.458 5.97059 568.433 7.06736L570.829 9.46354L569.827 10.4649L567.378 8.0151C566.519 8.63501 565.583 9.01053 564.57 9.14167C563.569 9.26088 562.615 9.1059 561.709 8.67674C561.852 9.20127 561.852 9.82118 561.709 10.5365C561.59 11.2517 561.363 12.2055 561.029 13.3976C560.755 14.4586 560.565 15.2454 560.457 15.758C560.374 16.2706 560.416 16.6461 560.582 16.8846L561.047 17.7071L560.171 18.5834L557.739 16.1514Z" fill="#2E3FFB"/>
<path d="M573.909 43.5378C573.706 43.3351 573.676 42.9357 573.819 42.3397C573.962 41.7436 574.248 40.8257 574.678 39.5858C575.131 38.3222 575.453 37.3089 575.643 36.5459C575.846 35.771 575.894 35.1392 575.786 34.6504C574.213 33.0768 573.313 32.1529 573.086 31.8787L574.123 30.8415C574.481 31.3184 575.184 32.0814 576.233 33.1304C577.044 33.9411 577.884 34.3643 578.755 34.4001C579.649 34.4358 580.555 34.0782 581.473 33.3271L576.555 28.4096L577.557 27.4082L582.492 32.3436C583.195 31.5687 583.565 30.7939 583.601 30.019C583.66 29.2441 583.267 28.3857 582.421 27.444L580.06 25.0478L580.99 24.0464L590.646 33.7027L589.663 34.6862L585.961 30.9846C586.08 32.2006 585.627 33.3569 584.602 34.4537L586.998 36.8499L585.997 37.8513L583.547 35.4015C582.689 36.0214 581.753 36.3969 580.74 36.528C579.738 36.6472 578.785 36.4923 577.879 36.0631C578.022 36.5876 578.022 37.2075 577.879 37.9228C577.759 38.6381 577.533 39.5918 577.199 40.7839C576.925 41.8449 576.734 42.6317 576.627 43.1444C576.543 43.657 576.585 44.0325 576.752 44.2709L577.217 45.0935L576.341 45.9697L573.909 43.5378Z" fill="#2E3FFB"/>
<path d="M623.87 43.5378C623.668 43.3351 623.638 42.9357 623.781 42.3397C623.924 41.7436 624.21 40.8257 624.639 39.5858C625.092 38.3222 625.414 37.3089 625.605 36.5459C625.808 35.771 625.855 35.1392 625.748 34.6504C624.174 33.0768 623.274 32.1529 623.048 31.8787L624.085 30.8415C624.443 31.3184 625.146 32.0814 626.195 33.1304C627.006 33.9411 627.846 34.3643 628.716 34.4001C629.61 34.4358 630.516 34.0782 631.434 33.3271L626.517 28.4096L627.518 27.4082L632.454 32.3436C633.157 31.5687 633.527 30.7939 633.562 30.019C633.622 29.2441 633.229 28.3857 632.382 27.444L630.022 25.0478L630.952 24.0464L640.608 33.7027L639.624 34.6862L635.923 30.9846C636.042 32.2006 635.589 33.3569 634.564 34.4537L636.96 36.8499L635.959 37.8513L633.509 35.4015C632.65 36.0214 631.715 36.3969 630.701 36.528C629.7 36.6472 628.746 36.4923 627.84 36.0631C627.983 36.5876 627.983 37.2075 627.84 37.9228C627.721 38.6381 627.494 39.5918 627.161 40.7839C626.886 41.8449 626.696 42.6317 626.588 43.1444C626.505 43.657 626.547 44.0325 626.714 44.2709L627.178 45.0935L626.302 45.9697L623.87 43.5378Z" fill="#2E3FFB"/>
<path d="M600.53 17.863C600.328 17.6603 600.298 17.2609 600.441 16.6649C600.584 16.0688 600.87 15.1509 601.299 13.911C601.752 12.6474 602.074 11.6341 602.265 10.8711C602.468 10.0962 602.515 9.46438 602.408 8.97561C600.834 7.40199 599.934 6.47809 599.708 6.2039L600.745 5.16674C601.103 5.64359 601.806 6.40656 602.855 7.45564C603.666 8.26629 604.506 8.68949 605.376 8.72526C606.27 8.76102 607.176 8.40338 608.094 7.65234L603.177 2.73479L604.178 1.7334L609.114 6.66883C609.817 5.89394 610.187 5.11905 610.222 4.34417C610.282 3.56928 609.889 2.71095 609.042 1.76916L606.682 -0.627028L607.612 -1.62842L617.268 8.02786L616.284 9.01137L612.583 5.3098C612.702 6.52577 612.249 7.68214 611.224 8.7789L613.62 11.1751L612.619 12.1765L610.169 9.72665C609.31 10.3466 608.375 10.7221 607.361 10.8532C606.36 10.9724 605.406 10.8175 604.5 10.3883C604.643 10.9128 604.643 11.5327 604.5 12.248C604.381 12.9633 604.154 13.917 603.821 15.1091C603.546 16.1701 603.356 16.9569 603.248 17.4696C603.165 17.9822 603.207 18.3577 603.374 18.5961L603.838 19.4187L602.962 20.2949L600.53 17.863Z" fill="#2E3FFB"/>
<path d="M664.692 16.1514C664.49 15.9487 664.46 15.5494 664.603 14.9533C664.746 14.3573 665.032 13.4393 665.461 12.1995C665.914 10.9358 666.236 9.92252 666.427 9.15955C666.629 8.38466 666.677 7.75283 666.57 7.26406C664.996 5.69044 664.096 4.76654 663.87 4.49235L664.907 3.45519C665.264 3.93204 665.968 4.69501 667.017 5.74409C667.828 6.55474 668.668 6.97794 669.538 7.01371C670.432 7.04947 671.338 6.69183 672.256 5.94079L667.339 1.02324L668.34 0.0218477L673.276 4.95728C673.979 4.18239 674.349 3.40751 674.384 2.63262C674.444 1.85773 674.05 0.999397 673.204 0.0576118L670.844 -2.33858L671.773 -3.33997L681.43 6.31631L680.446 7.29982L676.745 3.59825C676.864 4.81422 676.411 5.97059 675.386 7.06736L677.782 9.46354L676.78 10.4649L674.331 8.0151C673.472 8.63501 672.536 9.01053 671.523 9.14167C670.522 9.26088 669.568 9.1059 668.662 8.67674C668.805 9.20127 668.805 9.82118 668.662 10.5365C668.543 11.2517 668.316 12.2055 667.983 13.3976C667.708 14.4586 667.518 15.2454 667.41 15.758C667.327 16.2706 667.369 16.6461 667.535 16.8846L668 17.7071L667.124 18.5834L664.692 16.1514Z" fill="#2E3FFB"/>
<path d="M680.862 43.5378C680.659 43.3351 680.629 42.9357 680.772 42.3397C680.915 41.7436 681.202 40.8257 681.631 39.5858C682.084 38.3222 682.406 37.3089 682.596 36.5459C682.799 35.771 682.847 35.1392 682.739 34.6504C681.166 33.0768 680.266 32.1529 680.039 31.8787L681.076 30.8415C681.434 31.3184 682.137 32.0814 683.187 33.1304C683.997 33.9411 684.838 34.3643 685.708 34.4001C686.602 34.4358 687.508 34.0782 688.426 33.3271L683.508 28.4096L684.51 27.4082L689.445 32.3436C690.149 31.5687 690.518 30.7939 690.554 30.019C690.613 29.2441 690.22 28.3857 689.374 27.444L687.013 25.0478L687.943 24.0464L697.599 33.7027L696.616 34.6862L692.914 30.9846C693.034 32.2006 692.581 33.3569 691.555 34.4537L693.951 36.8499L692.95 37.8513L690.5 35.4015C689.642 36.0214 688.706 36.3969 687.693 36.528C686.691 36.6472 685.738 36.4923 684.832 36.0631C684.975 36.5876 684.975 37.2075 684.832 37.9228C684.712 38.6381 684.486 39.5918 684.152 40.7839C683.878 41.8449 683.687 42.6317 683.58 43.1444C683.496 43.657 683.538 44.0325 683.705 44.2709L684.17 45.0935L683.294 45.9697L680.862 43.5378Z" fill="#2E3FFB"/>
<path d="M730.823 43.5378C730.621 43.3351 730.591 42.9357 730.734 42.3397C730.877 41.7436 731.163 40.8257 731.592 39.5858C732.045 38.3222 732.367 37.3089 732.558 36.5459C732.761 35.771 732.808 35.1392 732.701 34.6504C731.127 33.0768 730.227 32.1529 730.001 31.8787L731.038 30.8415C731.396 31.3184 732.099 32.0814 733.148 33.1304C733.959 33.9411 734.799 34.3643 735.669 34.4001C736.564 34.4358 737.47 34.0782 738.388 33.3271L733.47 28.4096L734.471 27.4082L739.407 32.3436C740.11 31.5687 740.48 30.7939 740.515 30.019C740.575 29.2441 740.182 28.3857 739.335 27.444L736.975 25.0478L737.905 24.0464L747.561 33.7027L746.577 34.6862L742.876 30.9846C742.995 32.2006 742.542 33.3569 741.517 34.4537L743.913 36.8499L742.912 37.8513L740.462 35.4015C739.604 36.0214 738.668 36.3969 737.654 36.528C736.653 36.6472 735.699 36.4923 734.793 36.0631C734.936 36.5876 734.936 37.2075 734.793 37.9228C734.674 38.6381 734.448 39.5918 734.114 40.7839C733.84 41.8449 733.649 42.6317 733.542 43.1444C733.458 43.657 733.5 44.0325 733.667 44.2709L734.132 45.0935L733.255 45.9697L730.823 43.5378Z" fill="#2E3FFB"/>
<path d="M707.483 17.863C707.281 17.6603 707.251 17.2609 707.394 16.6649C707.537 16.0688 707.823 15.1509 708.252 13.911C708.705 12.6474 709.027 11.6341 709.218 10.8711C709.421 10.0962 709.468 9.46438 709.361 8.97561C707.787 7.40199 706.887 6.47809 706.661 6.2039L707.698 5.16674C708.056 5.64359 708.759 6.40656 709.808 7.45564C710.619 8.26629 711.459 8.68949 712.329 8.72526C713.223 8.76102 714.129 8.40338 715.047 7.65234L710.13 2.73479L711.131 1.7334L716.067 6.66883C716.77 5.89394 717.14 5.11905 717.175 4.34417C717.235 3.56928 716.842 2.71095 715.995 1.76916L713.635 -0.627028L714.565 -1.62842L724.221 8.02786L723.237 9.01137L719.536 5.3098C719.655 6.52577 719.202 7.68214 718.177 8.7789L720.573 11.1751L719.572 12.1765L717.122 9.72665C716.263 10.3466 715.328 10.7221 714.314 10.8532C713.313 10.9724 712.359 10.8175 711.453 10.3883C711.596 10.9128 711.596 11.5327 711.453 12.248C711.334 12.9633 711.107 13.917 710.774 15.1091C710.499 16.1701 710.309 16.9569 710.201 17.4696C710.118 17.9822 710.16 18.3577 710.327 18.5961L710.791 19.4187L709.915 20.2949L707.483 17.863Z" fill="#2E3FFB"/>
<path d="M771.645 16.1514C771.442 15.9487 771.413 15.5494 771.556 14.9533C771.699 14.3573 771.985 13.4393 772.414 12.1995C772.867 10.9358 773.189 9.92252 773.38 9.15955C773.582 8.38466 773.63 7.75283 773.523 7.26406C771.949 5.69044 771.049 4.76654 770.823 4.49235L771.86 3.45519C772.217 3.93204 772.921 4.69501 773.97 5.74409C774.78 6.55474 775.621 6.97794 776.491 7.01371C777.385 7.04947 778.291 6.69183 779.209 5.94079L774.292 1.02324L775.293 0.0218477L780.228 4.95728C780.932 4.18239 781.301 3.40751 781.337 2.63262C781.397 1.85773 781.003 0.999397 780.157 0.0576118L777.797 -2.33858L778.726 -3.33997L788.383 6.31631L787.399 7.29982L783.698 3.59825C783.817 4.81422 783.364 5.97059 782.339 7.06736L784.735 9.46354L783.733 10.4649L781.284 8.0151C780.425 8.63501 779.489 9.01053 778.476 9.14167C777.475 9.26088 776.521 9.1059 775.615 8.67674C775.758 9.20127 775.758 9.82118 775.615 10.5365C775.496 11.2517 775.269 12.2055 774.935 13.3976C774.661 14.4586 774.47 15.2454 774.363 15.758C774.28 16.2706 774.321 16.6461 774.488 16.8846L774.953 17.7071L774.077 18.5834L771.645 16.1514Z" fill="#2E3FFB"/>
<path d="M787.815 43.5378C787.612 43.3351 787.582 42.9357 787.726 42.3397C787.869 41.7436 788.155 40.8257 788.584 39.5858C789.037 38.3222 789.359 37.3089 789.55 36.5459C789.752 35.771 789.8 35.1392 789.693 34.6504C788.119 33.0768 787.219 32.1529 786.992 31.8787L788.03 30.8415C788.387 31.3184 789.091 32.0814 790.14 33.1304C790.95 33.9411 791.791 34.3643 792.661 34.4001C793.555 34.4358 794.461 34.0782 795.379 33.3271L790.462 28.4096L791.463 27.4082L796.398 32.3436C797.102 31.5687 797.471 30.7939 797.507 30.019C797.567 29.2441 797.173 28.3857 796.327 27.444L793.966 25.0478L794.896 24.0464L804.553 33.7027L803.569 34.6862L799.867 30.9846C799.987 32.2006 799.534 33.3569 798.508 34.4537L800.905 36.8499L799.903 37.8513L797.453 35.4015C796.595 36.0214 795.659 36.3969 794.646 36.528C793.644 36.6472 792.691 36.4923 791.785 36.0631C791.928 36.5876 791.928 37.2075 791.785 37.9228C791.666 38.6381 791.439 39.5918 791.105 40.7839C790.831 41.8449 790.64 42.6317 790.533 43.1444C790.45 43.657 790.491 44.0325 790.658 44.2709L791.123 45.0935L790.247 45.9697L787.815 43.5378Z" fill="#2E3FFB"/>
<path d="M837.776 43.5378C837.574 43.3351 837.544 42.9357 837.687 42.3397C837.83 41.7436 838.116 40.8257 838.545 39.5858C838.998 38.3222 839.32 37.3089 839.511 36.5459C839.714 35.771 839.761 35.1392 839.654 34.6504C838.08 33.0768 837.18 32.1529 836.954 31.8787L837.991 30.8415C838.349 31.3184 839.052 32.0814 840.101 33.1304C840.912 33.9411 841.752 34.3643 842.622 34.4001C843.517 34.4358 844.423 34.0782 845.34 33.3271L840.423 28.4096L841.424 27.4082L846.36 32.3436C847.063 31.5687 847.433 30.7939 847.468 30.019C847.528 29.2441 847.135 28.3857 846.288 27.444L843.928 25.0478L844.858 24.0464L854.514 33.7027L853.53 34.6862L849.829 30.9846C849.948 32.2006 849.495 33.3569 848.47 34.4537L850.866 36.8499L849.865 37.8513L847.415 35.4015C846.556 36.0214 845.621 36.3969 844.607 36.528C843.606 36.6472 842.652 36.4923 841.746 36.0631C841.889 36.5876 841.889 37.2075 841.746 37.9228C841.627 38.6381 841.4 39.5918 841.067 40.7839C840.792 41.8449 840.602 42.6317 840.494 43.1444C840.411 43.657 840.453 44.0325 840.62 44.2709L841.085 45.0935L840.208 45.9697L837.776 43.5378Z" fill="#2E3FFB"/>
<path d="M814.436 17.863C814.234 17.6603 814.204 17.2609 814.347 16.6649C814.49 16.0688 814.776 15.1509 815.205 13.911C815.658 12.6474 815.98 11.6341 816.171 10.8711C816.374 10.0962 816.421 9.46438 816.314 8.97561C814.74 7.40199 813.84 6.47809 813.614 6.2039L814.651 5.16674C815.009 5.64359 815.712 6.40656 816.761 7.45564C817.572 8.26629 818.412 8.68949 819.282 8.72526C820.177 8.76102 821.083 8.40338 822.001 7.65234L817.083 2.73479L818.084 1.7334L823.02 6.66883C823.723 5.89394 824.093 5.11905 824.128 4.34417C824.188 3.56928 823.795 2.71095 822.948 1.76916L820.588 -0.627028L821.518 -1.62842L831.174 8.02786L830.19 9.01137L826.489 5.3098C826.608 6.52577 826.155 7.68214 825.13 8.7789L827.526 11.1751L826.525 12.1765L824.075 9.72665C823.216 10.3466 822.281 10.7221 821.267 10.8532C820.266 10.9724 819.312 10.8175 818.406 10.3883C818.549 10.9128 818.549 11.5327 818.406 12.248C818.287 12.9633 818.061 13.917 817.727 15.1091C817.453 16.1701 817.262 16.9569 817.154 17.4696C817.071 17.9822 817.113 18.3577 817.28 18.5961L817.745 19.4187L816.868 20.2949L814.436 17.863Z" fill="#2E3FFB"/>
<path d="M876.637 16.1514C876.434 15.9487 876.405 15.5494 876.548 14.9533C876.691 14.3573 876.977 13.4393 877.406 12.1995C877.859 10.9358 878.181 9.92252 878.372 9.15955C878.574 8.38466 878.622 7.75283 878.515 7.26406C876.941 5.69044 876.041 4.76654 875.815 4.49235L876.852 3.45519C877.209 3.93204 877.913 4.69501 878.962 5.74409C879.772 6.55474 880.613 6.97794 881.483 7.01371C882.377 7.04947 883.283 6.69183 884.201 5.94079L879.284 1.02324L880.285 0.0218477L885.22 4.95728C885.924 4.18239 886.293 3.40751 886.329 2.63262C886.389 1.85773 885.995 0.999397 885.149 0.0576118L882.789 -2.33858L883.718 -3.33997L893.375 6.31631L892.391 7.29982L888.69 3.59825C888.809 4.81422 888.356 5.97059 887.331 7.06736L889.727 9.46354L888.725 10.4649L886.276 8.0151C885.417 8.63501 884.481 9.01053 883.468 9.14167C882.467 9.26088 881.513 9.1059 880.607 8.67674C880.75 9.20127 880.75 9.82118 880.607 10.5365C880.488 11.2517 880.261 12.2055 879.927 13.3976C879.653 14.4586 879.462 15.2454 879.355 15.758C879.272 16.2706 879.313 16.6461 879.48 16.8846L879.945 17.7071L879.069 18.5834L876.637 16.1514Z" fill="#2E3FFB"/>
<path d="M892.807 43.5378C892.604 43.3351 892.574 42.9357 892.717 42.3397C892.86 41.7436 893.147 40.8257 893.576 39.5858C894.029 38.3222 894.351 37.3089 894.541 36.5459C894.744 35.771 894.792 35.1392 894.684 34.6504C893.111 33.0768 892.211 32.1529 891.984 31.8787L893.021 30.8415C893.379 31.3184 894.082 32.0814 895.131 33.1304C895.942 33.9411 896.783 34.3643 897.653 34.4001C898.547 34.4358 899.453 34.0782 900.371 33.3271L895.453 28.4096L896.455 27.4082L901.39 32.3436C902.094 31.5687 902.463 30.7939 902.499 30.019C902.558 29.2441 902.165 28.3857 901.319 27.444L898.958 25.0478L899.888 24.0464L909.544 33.7027L908.561 34.6862L904.859 30.9846C904.978 32.2006 904.525 33.3569 903.5 34.4537L905.896 36.8499L904.895 37.8513L902.445 35.4015C901.587 36.0214 900.651 36.3969 899.638 36.528C898.636 36.6472 897.683 36.4923 896.777 36.0631C896.92 36.5876 896.92 37.2075 896.777 37.9228C896.657 38.6381 896.431 39.5918 896.097 40.7839C895.823 41.8449 895.632 42.6317 895.525 43.1444C895.441 43.657 895.483 44.0325 895.65 44.2709L896.115 45.0935L895.239 45.9697L892.807 43.5378Z" fill="#2E3FFB"/>
<path d="M942.768 43.5378C942.566 43.3351 942.536 42.9357 942.679 42.3397C942.822 41.7436 943.108 40.8257 943.537 39.5858C943.99 38.3222 944.312 37.3089 944.503 36.5459C944.706 35.771 944.753 35.1392 944.646 34.6504C943.072 33.0768 942.172 32.1529 941.946 31.8787L942.983 30.8415C943.341 31.3184 944.044 32.0814 945.093 33.1304C945.904 33.9411 946.744 34.3643 947.614 34.4001C948.508 34.4358 949.414 34.0782 950.332 33.3271L945.415 28.4096L946.416 27.4082L951.352 32.3436C952.055 31.5687 952.425 30.7939 952.46 30.019C952.52 29.2441 952.127 28.3857 951.28 27.444L948.92 25.0478L949.85 24.0464L959.506 33.7027L958.522 34.6862L954.821 30.9846C954.94 32.2006 954.487 33.3569 953.462 34.4537L955.858 36.8499L954.857 37.8513L952.407 35.4015C951.548 36.0214 950.613 36.3969 949.599 36.528C948.598 36.6472 947.644 36.4923 946.738 36.0631C946.881 36.5876 946.881 37.2075 946.738 37.9228C946.619 38.6381 946.392 39.5918 946.059 40.7839C945.784 41.8449 945.594 42.6317 945.486 43.1444C945.403 43.657 945.445 44.0325 945.612 44.2709L946.077 45.0935L945.2 45.9697L942.768 43.5378Z" fill="#2E3FFB"/>
<path d="M919.428 17.863C919.226 17.6603 919.196 17.2609 919.339 16.6649C919.482 16.0688 919.768 15.1509 920.197 13.911C920.65 12.6474 920.972 11.6341 921.163 10.8711C921.365 10.0962 921.413 9.46438 921.306 8.97561C919.732 7.40199 918.832 6.47809 918.606 6.2039L919.643 5.16674C920 5.64359 920.704 6.40656 921.753 7.45564C922.564 8.26629 923.404 8.68949 924.274 8.72526C925.168 8.76102 926.074 8.40338 926.992 7.65234L922.075 2.73479L923.076 1.7334L928.012 6.66883C928.715 5.89394 929.085 5.11905 929.12 4.34417C929.18 3.56928 928.786 2.71095 927.94 1.76916L925.58 -0.627028L926.51 -1.62842L936.166 8.02786L935.182 9.01137L931.481 5.3098C931.6 6.52577 931.147 7.68214 930.122 8.7789L932.518 11.1751L931.516 12.1765L929.067 9.72665C928.208 10.3466 927.272 10.7221 926.259 10.8532C925.258 10.9724 924.304 10.8175 923.398 10.3883C923.541 10.9128 923.541 11.5327 923.398 12.248C923.279 12.9633 923.052 13.917 922.719 15.1091C922.444 16.1701 922.254 16.9569 922.146 17.4696C922.063 17.9822 922.105 18.3577 922.271 18.5961L922.736 19.4187L921.86 20.2949L919.428 17.863Z" fill="#2E3FFB"/>
<path d="M983.59 16.1514C983.388 15.9487 983.358 15.5494 983.501 14.9533C983.644 14.3573 983.93 13.4393 984.359 12.1995C984.812 10.9358 985.134 9.92252 985.325 9.15955C985.527 8.38466 985.575 7.75283 985.468 7.26406C983.894 5.69044 982.994 4.76654 982.768 4.49235L983.805 3.45519C984.162 3.93204 984.866 4.69501 985.915 5.74409C986.726 6.55474 987.566 6.97794 988.436 7.01371C989.33 7.04947 990.236 6.69183 991.154 5.94079L986.237 1.02324L987.238 0.0218477L992.174 4.95728C992.877 4.18239 993.247 3.40751 993.282 2.63262C993.342 1.85773 992.948 0.999397 992.102 0.0576118L989.742 -2.33858L990.672 -3.33997L1000.33 6.31631L999.344 7.29982L995.643 3.59825C995.762 4.81422 995.309 5.97059 994.284 7.06736L996.68 9.46354L995.678 10.4649L993.229 8.0151C992.37 8.63501 991.434 9.01053 990.421 9.14167C989.42 9.26088 988.466 9.1059 987.56 8.67674C987.703 9.20127 987.703 9.82118 987.56 10.5365C987.441 11.2517 987.214 12.2055 986.881 13.3976C986.606 14.4586 986.416 15.2454 986.308 15.758C986.225 16.2706 986.267 16.6461 986.433 16.8846L986.898 17.7071L986.022 18.5834L983.59 16.1514Z" fill="#2E3FFB"/>
<path d="M999.76 43.5378C999.557 43.3351 999.527 42.9357 999.67 42.3397C999.813 41.7436 1000.1 40.8257 1000.53 39.5858C1000.98 38.3222 1001.3 37.3089 1001.49 36.5459C1001.7 35.771 1001.74 35.1392 1001.64 34.6504C1000.06 33.0768 999.164 32.1529 998.937 31.8787L999.974 30.8415C1000.33 31.3184 1001.04 32.0814 1002.08 33.1304C1002.9 33.9411 1003.74 34.3643 1004.61 34.4001C1005.5 34.4358 1006.41 34.0782 1007.32 33.3271L1002.41 28.4096L1003.41 27.4082L1008.34 32.3436C1009.05 31.5687 1009.42 30.7939 1009.45 30.019C1009.51 29.2441 1009.12 28.3857 1008.27 27.444L1005.91 25.0478L1006.84 24.0464L1016.5 33.7027L1015.51 34.6862L1011.81 30.9846C1011.93 32.2006 1011.48 33.3569 1010.45 34.4537L1012.85 36.8499L1011.85 37.8513L1009.4 35.4015C1008.54 36.0214 1007.6 36.3969 1006.59 36.528C1005.59 36.6472 1004.64 36.4923 1003.73 36.0631C1003.87 36.5876 1003.87 37.2075 1003.73 37.9228C1003.61 38.6381 1003.38 39.5918 1003.05 40.7839C1002.78 41.8449 1002.59 42.6317 1002.48 43.1444C1002.39 43.657 1002.44 44.0325 1002.6 44.2709L1003.07 45.0935L1002.19 45.9697L999.76 43.5378Z" fill="#2E3FFB"/>
<path d="M1049.72 43.5378C1049.52 43.3351 1049.49 42.9357 1049.63 42.3397C1049.78 41.7436 1050.06 40.8257 1050.49 39.5858C1050.94 38.3222 1051.27 37.3089 1051.46 36.5459C1051.66 35.771 1051.71 35.1392 1051.6 34.6504C1050.03 33.0768 1049.13 32.1529 1048.9 31.8787L1049.94 30.8415C1050.29 31.3184 1051 32.0814 1052.05 33.1304C1052.86 33.9411 1053.7 34.3643 1054.57 34.4001C1055.46 34.4358 1056.37 34.0782 1057.29 33.3271L1052.37 28.4096L1053.37 27.4082L1058.3 32.3436C1059.01 31.5687 1059.38 30.7939 1059.41 30.019C1059.47 29.2441 1059.08 28.3857 1058.23 27.444L1055.87 25.0478L1056.8 24.0464L1066.46 33.7027L1065.48 34.6862L1061.77 30.9846C1061.89 32.2006 1061.44 33.3569 1060.41 34.4537L1062.81 36.8499L1061.81 37.8513L1059.36 35.4015C1058.5 36.0214 1057.57 36.3969 1056.55 36.528C1055.55 36.6472 1054.6 36.4923 1053.69 36.0631C1053.83 36.5876 1053.83 37.2075 1053.69 37.9228C1053.57 38.6381 1053.35 39.5918 1053.01 40.7839C1052.74 41.8449 1052.55 42.6317 1052.44 43.1444C1052.36 43.657 1052.4 44.0325 1052.56 44.2709L1053.03 45.0935L1052.15 45.9697L1049.72 43.5378Z" fill="#2E3FFB"/>
<path d="M1026.38 17.863C1026.18 17.6603 1026.15 17.2609 1026.29 16.6649C1026.44 16.0688 1026.72 15.1509 1027.15 13.911C1027.6 12.6474 1027.93 11.6341 1028.12 10.8711C1028.32 10.0962 1028.37 9.46438 1028.26 8.97561C1026.69 7.40199 1025.79 6.47809 1025.56 6.2039L1026.6 5.16674C1026.95 5.64359 1027.66 6.40656 1028.71 7.45564C1029.52 8.26629 1030.36 8.68949 1031.23 8.72526C1032.12 8.76102 1033.03 8.40338 1033.95 7.65234L1029.03 2.73479L1030.03 1.7334L1034.96 6.66883C1035.67 5.89394 1036.04 5.11905 1036.07 4.34417C1036.13 3.56928 1035.74 2.71095 1034.89 1.76916L1032.53 -0.627028L1033.46 -1.62842L1043.12 8.02786L1042.14 9.01137L1038.43 5.3098C1038.55 6.52577 1038.1 7.68214 1037.07 8.7789L1039.47 11.1751L1038.47 12.1765L1036.02 9.72665C1035.16 10.3466 1034.23 10.7221 1033.21 10.8532C1032.21 10.9724 1031.26 10.8175 1030.35 10.3883C1030.49 10.9128 1030.49 11.5327 1030.35 12.248C1030.23 12.9633 1030.01 13.917 1029.67 15.1091C1029.4 16.1701 1029.21 16.9569 1029.1 17.4696C1029.02 17.9822 1029.06 18.3577 1029.22 18.5961L1029.69 19.4187L1028.81 20.2949L1026.38 17.863Z" fill="#2E3FFB"/>
<path d="M1090.54 16.1514C1090.34 15.9487 1090.31 15.5494 1090.45 14.9533C1090.6 14.3573 1090.88 13.4393 1091.31 12.1995C1091.77 10.9358 1092.09 9.92252 1092.28 9.15955C1092.48 8.38466 1092.53 7.75283 1092.42 7.26406C1090.85 5.69044 1089.95 4.76654 1089.72 4.49235L1090.76 3.45519C1091.12 3.93204 1091.82 4.69501 1092.87 5.74409C1093.68 6.55474 1094.52 6.97794 1095.39 7.01371C1096.28 7.04947 1097.19 6.69183 1098.11 5.94079L1093.19 1.02324L1094.19 0.0218477L1099.13 4.95728C1099.83 4.18239 1100.2 3.40751 1100.24 2.63262C1100.29 1.85773 1099.9 0.999397 1099.06 0.0576118L1096.69 -2.33858L1097.62 -3.33997L1107.28 6.31631L1106.3 7.29982L1102.6 3.59825C1102.71 4.81422 1102.26 5.97059 1101.24 7.06736L1103.63 9.46354L1102.63 10.4649L1100.18 8.0151C1099.32 8.63501 1098.39 9.01053 1097.37 9.14167C1096.37 9.26088 1095.42 9.1059 1094.51 8.67674C1094.66 9.20127 1094.66 9.82118 1094.51 10.5365C1094.39 11.2517 1094.17 12.2055 1093.83 13.3976C1093.56 14.4586 1093.37 15.2454 1093.26 15.758C1093.18 16.2706 1093.22 16.6461 1093.39 16.8846L1093.85 17.7071L1092.98 18.5834L1090.54 16.1514Z" fill="#2E3FFB"/>
<path d="M1106.71 43.5378C1106.51 43.3351 1106.48 42.9357 1106.62 42.3397C1106.77 41.7436 1107.05 40.8257 1107.48 39.5858C1107.94 38.3222 1108.26 37.3089 1108.45 36.5459C1108.65 35.771 1108.7 35.1392 1108.59 34.6504C1107.02 33.0768 1106.12 32.1529 1105.89 31.8787L1106.93 30.8415C1107.29 31.3184 1107.99 32.0814 1109.04 33.1304C1109.85 33.9411 1110.69 34.3643 1111.56 34.4001C1112.45 34.4358 1113.36 34.0782 1114.28 33.3271L1109.36 28.4096L1110.36 27.4082L1115.3 32.3436C1116 31.5687 1116.37 30.7939 1116.41 30.019C1116.46 29.2441 1116.07 28.3857 1115.22 27.444L1112.86 25.0478L1113.79 24.0464L1123.45 33.7027L1122.47 34.6862L1118.77 30.9846C1118.88 32.2006 1118.43 33.3569 1117.41 34.4537L1119.8 36.8499L1118.8 37.8513L1116.35 35.4015C1115.49 36.0214 1114.56 36.3969 1113.54 36.528C1112.54 36.6472 1111.59 36.4923 1110.68 36.0631C1110.83 36.5876 1110.83 37.2075 1110.68 37.9228C1110.56 38.6381 1110.34 39.5918 1110 40.7839C1109.73 41.8449 1109.54 42.6317 1109.43 43.1444C1109.35 43.657 1109.39 44.0325 1109.56 44.2709L1110.02 45.0935L1109.15 45.9697L1106.71 43.5378Z" fill="#2E3FFB"/>
<path d="M1156.67 43.5378C1156.47 43.3351 1156.44 42.9357 1156.59 42.3397C1156.73 41.7436 1157.01 40.8257 1157.44 39.5858C1157.9 38.3222 1158.22 37.3089 1158.41 36.5459C1158.61 35.771 1158.66 35.1392 1158.55 34.6504C1156.98 33.0768 1156.08 32.1529 1155.85 31.8787L1156.89 30.8415C1157.25 31.3184 1157.95 32.0814 1159 33.1304C1159.81 33.9411 1160.65 34.3643 1161.52 34.4001C1162.41 34.4358 1163.32 34.0782 1164.24 33.3271L1159.32 28.4096L1160.32 27.4082L1165.26 32.3436C1165.96 31.5687 1166.33 30.7939 1166.37 30.019C1166.43 29.2441 1166.03 28.3857 1165.19 27.444L1162.83 25.0478L1163.76 24.0464L1173.41 33.7027L1172.43 34.6862L1168.73 30.9846C1168.85 32.2006 1168.39 33.3569 1167.37 34.4537L1169.76 36.8499L1168.76 37.8513L1166.31 35.4015C1165.45 36.0214 1164.52 36.3969 1163.51 36.528C1162.5 36.6472 1161.55 36.4923 1160.64 36.0631C1160.79 36.5876 1160.79 37.2075 1160.64 37.9228C1160.53 38.6381 1160.3 39.5918 1159.96 40.7839C1159.69 41.8449 1159.5 42.6317 1159.39 43.1444C1159.31 43.657 1159.35 44.0325 1159.52 44.2709L1159.98 45.0935L1159.11 45.9697L1156.67 43.5378Z" fill="#2E3FFB"/>
<path d="M1133.33 17.863C1133.13 17.6603 1133.1 17.2609 1133.25 16.6649C1133.39 16.0688 1133.67 15.1509 1134.1 13.911C1134.56 12.6474 1134.88 11.6341 1135.07 10.8711C1135.27 10.0962 1135.32 9.46438 1135.21 8.97561C1133.64 7.40199 1132.74 6.47809 1132.51 6.2039L1133.55 5.16674C1133.91 5.64359 1134.61 6.40656 1135.66 7.45564C1136.47 8.26629 1137.31 8.68949 1138.18 8.72526C1139.07 8.76102 1139.98 8.40338 1140.9 7.65234L1135.98 2.73479L1136.98 1.7334L1141.92 6.66883C1142.62 5.89394 1142.99 5.11905 1143.03 4.34417C1143.09 3.56928 1142.69 2.71095 1141.85 1.76916L1139.49 -0.627028L1140.42 -1.62842L1150.07 8.02786L1149.09 9.01137L1145.39 5.3098C1145.51 6.52577 1145.05 7.68214 1144.03 8.7789L1146.42 11.1751L1145.42 12.1765L1142.97 9.72665C1142.11 10.3466 1141.18 10.7221 1140.17 10.8532C1139.16 10.9724 1138.21 10.8175 1137.3 10.3883C1137.45 10.9128 1137.45 11.5327 1137.3 12.248C1137.19 12.9633 1136.96 13.917 1136.62 15.1091C1136.35 16.1701 1136.16 16.9569 1136.05 17.4696C1135.97 17.9822 1136.01 18.3577 1136.18 18.5961L1136.64 19.4187L1135.77 20.2949L1133.33 17.863Z" fill="#2E3FFB"/>
<path d="M1197.5 16.1514C1197.29 15.9487 1197.26 15.5494 1197.41 14.9533C1197.55 14.3573 1197.84 13.4393 1198.27 12.1995C1198.72 10.9358 1199.04 9.92252 1199.23 9.15955C1199.43 8.38466 1199.48 7.75283 1199.37 7.26406C1197.8 5.69044 1196.9 4.76654 1196.67 4.49235L1197.71 3.45519C1198.07 3.93204 1198.77 4.69501 1199.82 5.74409C1200.63 6.55474 1201.47 6.97794 1202.34 7.01371C1203.24 7.04947 1204.14 6.69183 1205.06 5.94079L1200.14 1.02324L1201.14 0.0218477L1206.08 4.95728C1206.78 4.18239 1207.15 3.40751 1207.19 2.63262C1207.25 1.85773 1206.85 0.999397 1206.01 0.0576118L1203.65 -2.33858L1204.58 -3.33997L1214.23 6.31631L1213.25 7.29982L1209.55 3.59825C1209.67 4.81422 1209.22 5.97059 1208.19 7.06736L1210.59 9.46354L1209.58 10.4649L1207.13 8.0151C1206.28 8.63501 1205.34 9.01053 1204.33 9.14167C1203.33 9.26088 1202.37 9.1059 1201.47 8.67674C1201.61 9.20127 1201.61 9.82118 1201.47 10.5365C1201.35 11.2517 1201.12 12.2055 1200.79 13.3976C1200.51 14.4586 1200.32 15.2454 1200.21 15.758C1200.13 16.2706 1200.17 16.6461 1200.34 16.8846L1200.8 17.7071L1199.93 18.5834L1197.5 16.1514Z" fill="#2E3FFB"/>
<path d="M1213.67 43.5378C1213.46 43.3351 1213.43 42.9357 1213.58 42.3397C1213.72 41.7436 1214.01 40.8257 1214.44 39.5858C1214.89 38.3222 1215.21 37.3089 1215.4 36.5459C1215.6 35.771 1215.65 35.1392 1215.54 34.6504C1213.97 33.0768 1213.07 32.1529 1212.84 31.8787L1213.88 30.8415C1214.24 31.3184 1214.94 32.0814 1215.99 33.1304C1216.8 33.9411 1217.64 34.3643 1218.51 34.4001C1219.41 34.4358 1220.31 34.0782 1221.23 33.3271L1216.31 28.4096L1217.31 27.4082L1222.25 32.3436C1222.95 31.5687 1223.32 30.7939 1223.36 30.019C1223.42 29.2441 1223.02 28.3857 1222.18 27.444L1219.82 25.0478L1220.75 24.0464L1230.4 33.7027L1229.42 34.6862L1225.72 30.9846C1225.84 32.2006 1225.38 33.3569 1224.36 34.4537L1226.76 36.8499L1225.75 37.8513L1223.3 35.4015C1222.45 36.0214 1221.51 36.3969 1220.5 36.528C1219.5 36.6472 1218.54 36.4923 1217.64 36.0631C1217.78 36.5876 1217.78 37.2075 1217.64 37.9228C1217.52 38.6381 1217.29 39.5918 1216.96 40.7839C1216.68 41.8449 1216.49 42.6317 1216.38 43.1444C1216.3 43.657 1216.34 44.0325 1216.51 44.2709L1216.97 45.0935L1216.1 45.9697L1213.67 43.5378Z" fill="#2E3FFB"/>
<path d="M1263.63 43.5378C1263.43 43.3351 1263.4 42.9357 1263.54 42.3397C1263.68 41.7436 1263.97 40.8257 1264.4 39.5858C1264.85 38.3222 1265.17 37.3089 1265.36 36.5459C1265.56 35.771 1265.61 35.1392 1265.51 34.6504C1263.93 33.0768 1263.03 32.1529 1262.81 31.8787L1263.84 30.8415C1264.2 31.3184 1264.9 32.0814 1265.95 33.1304C1266.76 33.9411 1267.6 34.3643 1268.47 34.4001C1269.37 34.4358 1270.27 34.0782 1271.19 33.3271L1266.27 28.4096L1267.28 27.4082L1272.21 32.3436C1272.91 31.5687 1273.28 30.7939 1273.32 30.019C1273.38 29.2441 1272.99 28.3857 1272.14 27.444L1269.78 25.0478L1270.71 24.0464L1280.37 33.7027L1279.38 34.6862L1275.68 30.9846C1275.8 32.2006 1275.35 33.3569 1274.32 34.4537L1276.72 36.8499L1275.72 37.8513L1273.27 35.4015C1272.41 36.0214 1271.47 36.3969 1270.46 36.528C1269.46 36.6472 1268.5 36.4923 1267.6 36.0631C1267.74 36.5876 1267.74 37.2075 1267.6 37.9228C1267.48 38.6381 1267.25 39.5918 1266.92 40.7839C1266.64 41.8449 1266.45 42.6317 1266.35 43.1444C1266.26 43.657 1266.3 44.0325 1266.47 44.2709L1266.94 45.0935L1266.06 45.9697L1263.63 43.5378Z" fill="#2E3FFB"/>
<path d="M1240.29 17.863C1240.08 17.6603 1240.06 17.2609 1240.2 16.6649C1240.34 16.0688 1240.63 15.1509 1241.06 13.911C1241.51 12.6474 1241.83 11.6341 1242.02 10.8711C1242.22 10.0962 1242.27 9.46438 1242.17 8.97561C1240.59 7.40199 1239.69 6.47809 1239.47 6.2039L1240.5 5.16674C1240.86 5.64359 1241.56 6.40656 1242.61 7.45564C1243.42 8.26629 1244.26 8.68949 1245.13 8.72526C1246.03 8.76102 1246.93 8.40338 1247.85 7.65234L1242.93 2.73479L1243.94 1.7334L1248.87 6.66883C1249.57 5.89394 1249.94 5.11905 1249.98 4.34417C1250.04 3.56928 1249.65 2.71095 1248.8 1.76916L1246.44 -0.627028L1247.37 -1.62842L1257.03 8.02786L1256.04 9.01137L1252.34 5.3098C1252.46 6.52577 1252.01 7.68214 1250.98 8.7789L1253.38 11.1751L1252.38 12.1765L1249.93 9.72665C1249.07 10.3466 1248.13 10.7221 1247.12 10.8532C1246.12 10.9724 1245.16 10.8175 1244.26 10.3883C1244.4 10.9128 1244.4 11.5327 1244.26 12.248C1244.14 12.9633 1243.91 13.917 1243.58 15.1091C1243.3 16.1701 1243.11 16.9569 1243.01 17.4696C1242.92 17.9822 1242.96 18.3577 1243.13 18.5961L1243.6 19.4187L1242.72 20.2949L1240.29 17.863Z" fill="#2E3FFB"/>
<path d="M1299.93 16.1514C1299.73 15.9487 1299.7 15.5494 1299.84 14.9533C1299.99 14.3573 1300.27 13.4393 1300.7 12.1995C1301.15 10.9358 1301.48 9.92252 1301.67 9.15955C1301.87 8.38466 1301.92 7.75283 1301.81 7.26406C1300.24 5.69044 1299.34 4.76654 1299.11 4.49235L1300.15 3.45519C1300.5 3.93204 1301.21 4.69501 1302.26 5.74409C1303.07 6.55474 1303.91 6.97794 1304.78 7.01371C1305.67 7.04947 1306.58 6.69183 1307.5 5.94079L1302.58 1.02324L1303.58 0.0218477L1308.52 4.95728C1309.22 4.18239 1309.59 3.40751 1309.62 2.63262C1309.68 1.85773 1309.29 0.999397 1308.44 0.0576118L1306.08 -2.33858L1307.01 -3.33997L1316.67 6.31631L1315.69 7.29982L1311.98 3.59825C1312.1 4.81422 1311.65 5.97059 1310.63 7.06736L1313.02 9.46354L1312.02 10.4649L1309.57 8.0151C1308.71 8.63501 1307.78 9.01053 1306.76 9.14167C1305.76 9.26088 1304.81 9.1059 1303.9 8.67674C1304.04 9.20127 1304.04 9.82118 1303.9 10.5365C1303.78 11.2517 1303.56 12.2055 1303.22 13.3976C1302.95 14.4586 1302.76 15.2454 1302.65 15.758C1302.57 16.2706 1302.61 16.6461 1302.78 16.8846L1303.24 17.7071L1302.36 18.5834L1299.93 16.1514Z" fill="#2E3FFB"/>
<path d="M1316.1 43.5378C1315.9 43.3351 1315.87 42.9357 1316.01 42.3397C1316.16 41.7436 1316.44 40.8257 1316.87 39.5858C1317.32 38.3222 1317.65 37.3089 1317.84 36.5459C1318.04 35.771 1318.09 35.1392 1317.98 34.6504C1316.41 33.0768 1315.51 32.1529 1315.28 31.8787L1316.32 30.8415C1316.67 31.3184 1317.38 32.0814 1318.43 33.1304C1319.24 33.9411 1320.08 34.3643 1320.95 34.4001C1321.84 34.4358 1322.75 34.0782 1323.67 33.3271L1318.75 28.4096L1319.75 27.4082L1324.69 32.3436C1325.39 31.5687 1325.76 30.7939 1325.79 30.019C1325.85 29.2441 1325.46 28.3857 1324.61 27.444L1322.25 25.0478L1323.18 24.0464L1332.84 33.7027L1331.86 34.6862L1328.15 30.9846C1328.27 32.2006 1327.82 33.3569 1326.8 34.4537L1329.19 36.8499L1328.19 37.8513L1325.74 35.4015C1324.88 36.0214 1323.95 36.3969 1322.93 36.528C1321.93 36.6472 1320.98 36.4923 1320.07 36.0631C1320.21 36.5876 1320.21 37.2075 1320.07 37.9228C1319.95 38.6381 1319.73 39.5918 1319.39 40.7839C1319.12 41.8449 1318.93 42.6317 1318.82 43.1444C1318.74 43.657 1318.78 44.0325 1318.94 44.2709L1319.41 45.0935L1318.53 45.9697L1316.1 43.5378Z" fill="#2E3FFB"/>
<path d="M1366.06 43.5378C1365.86 43.3351 1365.83 42.9357 1365.97 42.3397C1366.12 41.7436 1366.4 40.8257 1366.83 39.5858C1367.29 38.3222 1367.61 37.3089 1367.8 36.5459C1368 35.771 1368.05 35.1392 1367.94 34.6504C1366.37 33.0768 1365.47 32.1529 1365.24 31.8787L1366.28 30.8415C1366.64 31.3184 1367.34 32.0814 1368.39 33.1304C1369.2 33.9411 1370.04 34.3643 1370.91 34.4001C1371.8 34.4358 1372.71 34.0782 1373.63 33.3271L1368.71 28.4096L1369.71 27.4082L1374.65 32.3436C1375.35 31.5687 1375.72 30.7939 1375.76 30.019C1375.81 29.2441 1375.42 28.3857 1374.57 27.444L1372.21 25.0478L1373.14 24.0464L1382.8 33.7027L1381.82 34.6862L1378.12 30.9846C1378.23 32.2006 1377.78 33.3569 1376.76 34.4537L1379.15 36.8499L1378.15 37.8513L1375.7 35.4015C1374.84 36.0214 1373.91 36.3969 1372.89 36.528C1371.89 36.6472 1370.94 36.4923 1370.03 36.0631C1370.18 36.5876 1370.18 37.2075 1370.03 37.9228C1369.91 38.6381 1369.69 39.5918 1369.35 40.7839C1369.08 41.8449 1368.89 42.6317 1368.78 43.1444C1368.7 43.657 1368.74 44.0325 1368.91 44.2709L1369.37 45.0935L1368.5 45.9697L1366.06 43.5378Z" fill="#2E3FFB"/>
<path d="M1342.72 17.863C1342.52 17.6603 1342.49 17.2609 1342.63 16.6649C1342.78 16.0688 1343.06 15.1509 1343.49 13.911C1343.95 12.6474 1344.27 11.6341 1344.46 10.8711C1344.66 10.0962 1344.71 9.46438 1344.6 8.97561C1343.03 7.40199 1342.13 6.47809 1341.9 6.2039L1342.94 5.16674C1343.3 5.64359 1344 6.40656 1345.05 7.45564C1345.86 8.26629 1346.7 8.68949 1347.57 8.72526C1348.46 8.76102 1349.37 8.40338 1350.29 7.65234L1345.37 2.73479L1346.37 1.7334L1351.31 6.66883C1352.01 5.89394 1352.38 5.11905 1352.42 4.34417C1352.47 3.56928 1352.08 2.71095 1351.24 1.76916L1348.87 -0.627028L1349.8 -1.62842L1359.46 8.02786L1358.48 9.01137L1354.78 5.3098C1354.89 6.52577 1354.44 7.68214 1353.42 8.7789L1355.81 11.1751L1354.81 12.1765L1352.36 9.72665C1351.5 10.3466 1350.57 10.7221 1349.55 10.8532C1348.55 10.9724 1347.6 10.8175 1346.69 10.3883C1346.84 10.9128 1346.84 11.5327 1346.69 12.248C1346.57 12.9633 1346.35 13.917 1346.01 15.1091C1345.74 16.1701 1345.55 16.9569 1345.44 17.4696C1345.36 17.9822 1345.4 18.3577 1345.57 18.5961L1346.03 19.4187L1345.16 20.2949L1342.72 17.863Z" fill="#2E3FFB"/>
<path d="M1406.89 16.1514C1406.68 15.9487 1406.65 15.5494 1406.8 14.9533C1406.94 14.3573 1407.22 13.4393 1407.65 12.1995C1408.11 10.9358 1408.43 9.92252 1408.62 9.15955C1408.82 8.38466 1408.87 7.75283 1408.76 7.26406C1407.19 5.69044 1406.29 4.76654 1406.06 4.49235L1407.1 3.45519C1407.46 3.93204 1408.16 4.69501 1409.21 5.74409C1410.02 6.55474 1410.86 6.97794 1411.73 7.01371C1412.63 7.04947 1413.53 6.69183 1414.45 5.94079L1409.53 1.02324L1410.53 0.0218477L1415.47 4.95728C1416.17 4.18239 1416.54 3.40751 1416.58 2.63262C1416.64 1.85773 1416.24 0.999397 1415.4 0.0576118L1413.04 -2.33858L1413.97 -3.33997L1423.62 6.31631L1422.64 7.29982L1418.94 3.59825C1419.06 4.81422 1418.6 5.97059 1417.58 7.06736L1419.97 9.46354L1418.97 10.4649L1416.52 8.0151C1415.67 8.63501 1414.73 9.01053 1413.72 9.14167C1412.71 9.26088 1411.76 9.1059 1410.85 8.67674C1411 9.20127 1411 9.82118 1410.85 10.5365C1410.74 11.2517 1410.51 12.2055 1410.18 13.3976C1409.9 14.4586 1409.71 15.2454 1409.6 15.758C1409.52 16.2706 1409.56 16.6461 1409.73 16.8846L1410.19 17.7071L1409.32 18.5834L1406.89 16.1514Z" fill="#2E3FFB"/>
<path d="M1423.05 43.5378C1422.85 43.3351 1422.82 42.9357 1422.97 42.3397C1423.11 41.7436 1423.39 40.8257 1423.82 39.5858C1424.28 38.3222 1424.6 37.3089 1424.79 36.5459C1424.99 35.771 1425.04 35.1392 1424.93 34.6504C1423.36 33.0768 1422.46 32.1529 1422.23 31.8787L1423.27 30.8415C1423.63 31.3184 1424.33 32.0814 1425.38 33.1304C1426.19 33.9411 1427.03 34.3643 1427.9 34.4001C1428.79 34.4358 1429.7 34.0782 1430.62 33.3271L1425.7 28.4096L1426.7 27.4082L1431.64 32.3436C1432.34 31.5687 1432.71 30.7939 1432.75 30.019C1432.81 29.2441 1432.41 28.3857 1431.57 27.444L1429.21 25.0478L1430.14 24.0464L1439.79 33.7027L1438.81 34.6862L1435.11 30.9846C1435.23 32.2006 1434.77 33.3569 1433.75 34.4537L1436.14 36.8499L1435.14 37.8513L1432.69 35.4015C1431.83 36.0214 1430.9 36.3969 1429.89 36.528C1428.88 36.6472 1427.93 36.4923 1427.02 36.0631C1427.17 36.5876 1427.17 37.2075 1427.02 37.9228C1426.91 38.6381 1426.68 39.5918 1426.34 40.7839C1426.07 41.8449 1425.88 42.6317 1425.77 43.1444C1425.69 43.657 1425.73 44.0325 1425.9 44.2709L1426.36 45.0935L1425.49 45.9697L1423.05 43.5378Z" fill="#2E3FFB"/>
</svg>
