<svg width="1436" height="510" viewBox="0 0 1436 510" fill="none" xmlns="http://www.w3.org/2000/svg">
<g clip-path="url(#clip0)">
<rect x="-1.64014" y="-1.04663" width="1438.78" height="511.231" fill="#2E3FFB"/>
<rect x="-6.1521" y="-1.04663" width="1447.8" height="44.8698" fill="#BFE2F2"/>
<path d="M4.2239 12.3406C3.94585 12.0625 3.90496 11.5146 4.10123 10.6968C4.29751 9.87901 4.69005 8.6196 5.27886 6.91858C5.90039 5.18486 6.342 3.7946 6.60369 2.74782C6.88174 1.68469 6.94717 0.817823 6.79996 0.14723C4.64098 -2.01175 3.40611 -3.27934 3.09534 -3.65552L4.51831 -5.07849C5.00899 -4.42425 5.97399 -3.37747 7.41331 -1.93815C8.52551 -0.825948 9.67861 -0.245312 10.8726 -0.196245C12.0993 -0.147177 13.3423 -0.637855 14.6017 -1.66828L7.85492 -8.4151L9.22882 -9.789L16.0002 -3.01764C16.9652 -4.08078 17.4722 -5.14391 17.5213 -6.20705C17.6031 -7.27019 17.0633 -8.44781 15.902 -9.73993L12.6636 -13.0275L13.9393 -14.4014L27.1876 -1.15307L25.8383 0.196299L20.7598 -4.88222C20.9233 -3.21391 20.3018 -1.62739 18.8952 -0.122643L22.1827 3.1649L20.8088 4.5388L17.4477 1.17765C16.27 2.02816 14.9861 2.54337 13.5959 2.72329C12.222 2.88685 10.9135 2.67422 9.67043 2.08541C9.8667 2.80507 9.8667 3.65558 9.67043 4.63693C9.50687 5.61829 9.19611 6.92677 8.73814 8.56236C8.36195 10.018 8.10026 11.0975 7.95306 11.8008C7.83856 12.5041 7.89581 13.0193 8.12479 13.3465L8.76267 14.475L7.56051 15.6772L4.2239 12.3406Z" fill="#2E3FFB"/>
<path d="M26.4086 49.9143C26.1305 49.6363 26.0897 49.0883 26.2859 48.2705C26.4822 47.4527 26.8747 46.1933 27.4636 44.4923C28.0851 42.7586 28.5267 41.3683 28.7884 40.3216C29.0664 39.2584 29.1319 38.3916 28.9847 37.721C26.8257 35.562 25.5908 34.2944 25.28 33.9182L26.703 32.4952C27.1937 33.1495 28.1587 34.1963 29.598 35.6356C30.7102 36.7478 31.8633 37.3284 33.0573 37.3775C34.284 37.4266 35.527 36.9359 36.7864 35.9055L30.0396 29.1586L31.4135 27.7847L38.1849 34.5561C39.1499 33.493 39.6569 32.4298 39.706 31.3667C39.7877 30.3035 39.248 29.1259 38.0867 27.8338L34.8483 24.5463L36.124 23.1724L49.3723 36.4207L48.023 37.77L42.9444 32.6915C43.108 34.3598 42.4865 35.9463 41.0799 37.4511L44.3674 40.7386L42.9935 42.1125L39.6324 38.7514C38.4547 39.6019 37.1708 40.1171 35.7805 40.297C34.4066 40.4606 33.0982 40.248 31.8551 39.6591C32.0514 40.3788 32.0514 41.2293 31.8551 42.2107C31.6916 43.192 31.3808 44.5005 30.9228 46.1361C30.5466 47.5918 30.285 48.6713 30.1377 49.3746C30.0233 50.0779 30.0805 50.5931 30.3095 50.9202L30.9474 52.0488L29.7452 53.2509L26.4086 49.9143Z" fill="#2E3FFB"/>
<path d="M94.9553 49.9143C94.6773 49.6363 94.6364 49.0883 94.8327 48.2705C95.029 47.4527 95.4215 46.1933 96.0103 44.4923C96.6318 42.7586 97.0734 41.3683 97.3351 40.3216C97.6132 39.2584 97.6786 38.3916 97.5314 37.721C95.3724 35.562 94.1376 34.2944 93.8268 33.9182L95.2498 32.4952C95.7404 33.1495 96.7054 34.1963 98.1448 35.6356C99.257 36.7478 100.41 37.3284 101.604 37.3775C102.831 37.4266 104.074 36.9359 105.333 35.9055L98.5864 29.1586L99.9603 27.7847L106.732 34.5561C107.697 33.493 108.204 32.4298 108.253 31.3667C108.335 30.3035 107.795 29.1259 106.633 27.8338L103.395 24.5463L104.671 23.1724L117.919 36.4207L116.57 37.77L111.491 32.6915C111.655 34.3598 111.033 35.9463 109.627 37.4511L112.914 40.7386L111.54 42.1125L108.179 38.7514C107.001 39.6019 105.718 40.1171 104.327 40.297C102.953 40.4606 101.645 40.248 100.402 39.6591C100.598 40.3788 100.598 41.2293 100.402 42.2107C100.238 43.192 99.9276 44.5005 99.4696 46.1361C99.0934 47.5918 98.8317 48.6713 98.6845 49.3746C98.57 50.0779 98.6273 50.5931 98.8562 50.9202L99.4941 52.0488L98.292 53.2509L94.9553 49.9143Z" fill="#2E3FFB"/>
<path d="M62.933 14.6888C62.655 14.4108 62.6141 13.8629 62.8103 13.0451C63.0066 12.2273 63.3992 10.9679 63.988 9.26685C64.6095 7.53312 65.0511 6.14287 65.3128 5.09609C65.5908 4.03295 65.6563 3.16609 65.5091 2.4955C63.3501 0.336513 62.1152 -0.931071 61.8044 -1.30726L63.2274 -2.73022C63.7181 -2.07599 64.6831 -1.02921 66.1224 0.410116C67.2346 1.52232 68.3877 2.10295 69.5817 2.15202C70.8084 2.20109 72.0514 1.71041 73.3108 0.679988L66.564 -6.06683L67.9379 -7.44073L74.7093 -0.669377C75.6743 -1.73251 76.1813 -2.79565 76.2304 -3.85878C76.3122 -4.92192 75.7724 -6.09955 74.6111 -7.39166L71.3727 -10.6792L72.6484 -12.0531L85.8967 1.1952L84.5474 2.54457L79.4689 -2.53395C79.6324 -0.865647 79.0109 0.720878 77.6043 2.22562L80.8918 5.51317L79.5179 6.88707L76.1568 3.52592C74.9792 4.37643 73.6952 4.89164 72.305 5.07156C70.9311 5.23512 69.6226 5.02249 68.3795 4.43367C68.5758 5.15334 68.5758 6.00384 68.3795 6.9852C68.216 7.96656 67.9052 9.27503 67.4472 10.9106C67.0711 12.3663 66.8094 13.4458 66.6622 14.1491C66.5477 14.8524 66.6049 15.3676 66.8339 15.6947L67.4718 16.8233L66.2696 18.0255L62.933 14.6888Z" fill="#2E3FFB"/>
<path d="M150.962 12.3406C150.684 12.0625 150.643 11.5146 150.84 10.6968C151.036 9.87901 151.428 8.6196 152.017 6.91858C152.639 5.18486 153.08 3.7946 153.342 2.74782C153.62 1.68469 153.686 0.817823 153.538 0.14723C151.379 -2.01175 150.145 -3.27934 149.834 -3.65552L151.257 -5.07849C151.747 -4.42425 152.712 -3.37747 154.152 -1.93815C155.264 -0.825948 156.417 -0.245312 157.611 -0.196245C158.838 -0.147177 160.081 -0.637855 161.34 -1.66828L154.593 -8.4151L155.967 -9.789L162.739 -3.01764C163.704 -4.08078 164.211 -5.14391 164.26 -6.20705C164.341 -7.27019 163.802 -8.44781 162.64 -9.73993L159.402 -13.0275L160.678 -14.4014L173.926 -1.15307L172.577 0.196299L167.498 -4.88222C167.662 -3.21391 167.04 -1.62739 165.634 -0.122643L168.921 3.1649L167.547 4.5388L164.186 1.17765C163.008 2.02816 161.725 2.54337 160.334 2.72329C158.96 2.88685 157.652 2.67422 156.409 2.08541C156.605 2.80507 156.605 3.65558 156.409 4.63693C156.245 5.61829 155.935 6.92677 155.477 8.56236C155.1 10.018 154.839 11.0975 154.691 11.8008C154.577 12.5041 154.634 13.0193 154.863 13.3465L155.501 14.475L154.299 15.6772L150.962 12.3406Z" fill="#2E3FFB"/>
<path d="M173.147 49.9143C172.869 49.6363 172.828 49.0883 173.024 48.2705C173.22 47.4527 173.613 46.1933 174.202 44.4923C174.823 42.7586 175.265 41.3683 175.527 40.3216C175.805 39.2584 175.87 38.3916 175.723 37.721C173.564 35.562 172.329 34.2944 172.018 33.9182L173.441 32.4952C173.932 33.1495 174.897 34.1963 176.336 35.6356C177.448 36.7478 178.602 37.3284 179.796 37.3775C181.022 37.4266 182.265 36.9359 183.525 35.9055L176.778 29.1586L178.152 27.7847L184.923 34.5561C185.888 33.493 186.395 32.4298 186.444 31.3667C186.526 30.3035 185.986 29.1259 184.825 27.8338L181.587 24.5463L182.862 23.1724L196.111 36.4207L194.761 37.77L189.683 32.6915C189.846 34.3598 189.225 35.9463 187.818 37.4511L191.106 40.7386L189.732 42.1125L186.371 38.7514C185.193 39.6019 183.909 40.1171 182.519 40.297C181.145 40.4606 179.836 40.248 178.593 39.6591C178.79 40.3788 178.79 41.2293 178.593 42.2107C178.43 43.192 178.119 44.5005 177.661 46.1361C177.285 47.5918 177.023 48.6713 176.876 49.3746C176.762 50.0779 176.819 50.5931 177.048 50.9202L177.686 52.0488L176.483 53.2509L173.147 49.9143Z" fill="#2E3FFB"/>
<path d="M241.694 49.9143C241.416 49.6363 241.375 49.0883 241.571 48.2705C241.767 47.4527 242.16 46.1933 242.749 44.4923C243.37 42.7586 243.812 41.3683 244.073 40.3216C244.352 39.2584 244.417 38.3916 244.27 37.721C242.111 35.562 240.876 34.2944 240.565 33.9182L241.988 32.4952C242.479 33.1495 243.444 34.1963 244.883 35.6356C245.995 36.7478 247.148 37.3284 248.342 37.3775C249.569 37.4266 250.812 36.9359 252.072 35.9055L245.325 29.1586L246.699 27.7847L253.47 34.5561C254.435 33.493 254.942 32.4298 254.991 31.3667C255.073 30.3035 254.533 29.1259 253.372 27.8338L250.133 24.5463L251.409 23.1724L264.657 36.4207L263.308 37.77L258.23 32.6915C258.393 34.3598 257.772 35.9463 256.365 37.4511L259.653 40.7386L258.279 42.1125L254.917 38.7514C253.74 39.6019 252.456 40.1171 251.066 40.297C249.692 40.4606 248.383 40.248 247.14 39.6591C247.336 40.3788 247.336 41.2293 247.14 42.2107C246.977 43.192 246.666 44.5005 246.208 46.1361C245.832 47.5918 245.57 48.6713 245.423 49.3746C245.308 50.0779 245.366 50.5931 245.595 50.9202L246.232 52.0488L245.03 53.2509L241.694 49.9143Z" fill="#2E3FFB"/>
<path d="M209.671 14.6888C209.393 14.4108 209.352 13.8629 209.549 13.0451C209.745 12.2273 210.137 10.9679 210.726 9.26685C211.348 7.53312 211.789 6.14287 212.051 5.09609C212.329 4.03295 212.395 3.16609 212.247 2.4955C210.088 0.336513 208.853 -0.931071 208.543 -1.30726L209.966 -2.73022C210.456 -2.07599 211.421 -1.02921 212.861 0.410116C213.973 1.52232 215.126 2.10295 216.32 2.15202C217.547 2.20109 218.79 1.71041 220.049 0.679988L213.302 -6.06683L214.676 -7.44073L221.448 -0.669377C222.413 -1.73251 222.92 -2.79565 222.969 -3.85878C223.05 -4.92192 222.511 -6.09955 221.349 -7.39166L218.111 -10.6792L219.387 -12.0531L232.635 1.1952L231.286 2.54457L226.207 -2.53395C226.371 -0.865647 225.749 0.720878 224.343 2.22562L227.63 5.51317L226.256 6.88707L222.895 3.52592C221.717 4.37643 220.433 4.89164 219.043 5.07156C217.669 5.23512 216.361 5.02249 215.118 4.43367C215.314 5.15334 215.314 6.00384 215.118 6.9852C214.954 7.96656 214.643 9.27503 214.186 10.9106C213.809 12.3663 213.548 13.4458 213.4 14.1491C213.286 14.8524 213.343 15.3676 213.572 15.6947L214.21 16.8233L213.008 18.0255L209.671 14.6888Z" fill="#2E3FFB"/>
<path d="M297.701 12.3406C297.423 12.0625 297.382 11.5146 297.578 10.6968C297.774 9.87901 298.167 8.6196 298.756 6.91858C299.377 5.18486 299.819 3.7946 300.081 2.74782C300.359 1.68469 300.424 0.817823 300.277 0.14723C298.118 -2.01175 296.883 -3.27934 296.572 -3.65552L297.995 -5.07849C298.486 -4.42425 299.451 -3.37747 300.89 -1.93815C302.002 -0.825948 303.156 -0.245312 304.35 -0.196245C305.576 -0.147177 306.819 -0.637855 308.079 -1.66828L301.332 -8.4151L302.706 -9.789L309.477 -3.01764C310.442 -4.08078 310.949 -5.14391 310.998 -6.20705C311.08 -7.27019 310.54 -8.44781 309.379 -9.73993L306.14 -13.0275L307.416 -14.4014L320.665 -1.15307L319.315 0.196299L314.237 -4.88222C314.4 -3.21391 313.779 -1.62739 312.372 -0.122643L315.66 3.1649L314.286 4.5388L310.925 1.17765C309.747 2.02816 308.463 2.54337 307.073 2.72329C305.699 2.88685 304.39 2.67422 303.147 2.08541C303.344 2.80507 303.344 3.65558 303.147 4.63693C302.984 5.61829 302.673 6.92677 302.215 8.56236C301.839 10.018 301.577 11.0975 301.43 11.8008C301.315 12.5041 301.373 13.0193 301.602 13.3465L302.24 14.475L301.037 15.6772L297.701 12.3406Z" fill="#2E3FFB"/>
<path d="M319.885 49.9143C319.607 49.6363 319.566 49.0883 319.763 48.2705C319.959 47.4527 320.352 46.1933 320.94 44.4923C321.562 42.7586 322.003 41.3683 322.265 40.3216C322.543 39.2584 322.609 38.3916 322.461 37.721C320.302 35.562 319.068 34.2944 318.757 33.9182L320.18 32.4952C320.67 33.1495 321.635 34.1963 323.075 35.6356C324.187 36.7478 325.34 37.3284 326.534 37.3775C327.761 37.4266 329.004 36.9359 330.263 35.9055L323.516 29.1586L324.89 27.7847L331.662 34.5561C332.627 33.493 333.134 32.4298 333.183 31.3667C333.265 30.3035 332.725 29.1259 331.564 27.8338L328.325 24.5463L329.601 23.1724L342.849 36.4207L341.5 37.77L336.421 32.6915C336.585 34.3598 335.963 35.9463 334.557 37.4511L337.844 40.7386L336.47 42.1125L333.109 38.7514C331.932 39.6019 330.648 40.1171 329.257 40.297C327.883 40.4606 326.575 40.248 325.332 39.6591C325.528 40.3788 325.528 41.2293 325.332 42.2107C325.168 43.192 324.858 44.5005 324.4 46.1361C324.023 47.5918 323.762 48.6713 323.615 49.3746C323.5 50.0779 323.557 50.5931 323.786 50.9202L324.424 52.0488L323.222 53.2509L319.885 49.9143Z" fill="#2E3FFB"/>
<path d="M388.432 49.9143C388.154 49.6363 388.113 49.0883 388.309 48.2705C388.506 47.4527 388.898 46.1933 389.487 44.4923C390.109 42.7586 390.55 41.3683 390.812 40.3216C391.09 39.2584 391.155 38.3916 391.008 37.721C388.849 35.562 387.614 34.2944 387.304 33.9182L388.727 32.4952C389.217 33.1495 390.182 34.1963 391.622 35.6356C392.734 36.7478 393.887 37.3284 395.081 37.3775C396.308 37.4266 397.551 36.9359 398.81 35.9055L392.063 29.1586L393.437 27.7847L400.208 34.5561C401.173 33.493 401.68 32.4298 401.73 31.3667C401.811 30.3035 401.272 29.1259 400.11 27.8338L396.872 24.5463L398.148 23.1724L411.396 36.4207L410.047 37.77L404.968 32.6915C405.132 34.3598 404.51 35.9463 403.103 37.4511L406.391 40.7386L405.017 42.1125L401.656 38.7514C400.478 39.6019 399.194 40.1171 397.804 40.297C396.43 40.4606 395.122 40.248 393.879 39.6591C394.075 40.3788 394.075 41.2293 393.879 42.2107C393.715 43.192 393.404 44.5005 392.946 46.1361C392.57 47.5918 392.309 48.6713 392.161 49.3746C392.047 50.0779 392.104 50.5931 392.333 50.9202L392.971 52.0488L391.769 53.2509L388.432 49.9143Z" fill="#2E3FFB"/>
<path d="M356.41 14.6888C356.132 14.4108 356.091 13.8629 356.287 13.0451C356.483 12.2273 356.876 10.9679 357.465 9.26685C358.086 7.53312 358.528 6.14287 358.79 5.09609C359.068 4.03295 359.133 3.16609 358.986 2.4955C356.827 0.336513 355.592 -0.931071 355.281 -1.30726L356.704 -2.73022C357.195 -2.07599 358.16 -1.02921 359.599 0.410116C360.711 1.52232 361.865 2.10295 363.059 2.15202C364.285 2.20109 365.528 1.71041 366.788 0.679988L360.041 -6.06683L361.415 -7.44073L368.186 -0.669377C369.151 -1.73251 369.658 -2.79565 369.707 -3.85878C369.789 -4.92192 369.249 -6.09955 368.088 -7.39166L364.849 -10.6792L366.125 -12.0531L379.374 1.1952L378.024 2.54457L372.946 -2.53395C373.109 -0.865647 372.488 0.720878 371.081 2.22562L374.369 5.51317L372.995 6.88707L369.634 3.52592C368.456 4.37643 367.172 4.89164 365.782 5.07156C364.408 5.23512 363.099 5.02249 361.856 4.43367C362.053 5.15334 362.053 6.00384 361.856 6.9852C361.693 7.96656 361.382 9.27503 360.924 10.9106C360.548 12.3663 360.286 13.4458 360.139 14.1491C360.024 14.8524 360.082 15.3676 360.311 15.6947L360.949 16.8233L359.746 18.0255L356.41 14.6888Z" fill="#2E3FFB"/>
<path d="M444.439 12.3406C444.161 12.0625 444.12 11.5146 444.317 10.6968C444.513 9.87901 444.905 8.6196 445.494 6.91858C446.116 5.18486 446.557 3.7946 446.819 2.74782C447.097 1.68469 447.162 0.817823 447.015 0.14723C444.856 -2.01175 443.621 -3.27934 443.311 -3.65552L444.734 -5.07849C445.224 -4.42425 446.189 -3.37747 447.629 -1.93815C448.741 -0.825948 449.894 -0.245312 451.088 -0.196245C452.315 -0.147177 453.558 -0.637855 454.817 -1.66828L448.07 -8.4151L449.444 -9.789L456.215 -3.01764C457.18 -4.08078 457.687 -5.14391 457.737 -6.20705C457.818 -7.27019 457.279 -8.44781 456.117 -9.73993L452.879 -13.0275L454.155 -14.4014L467.403 -1.15307L466.054 0.196299L460.975 -4.88222C461.139 -3.21391 460.517 -1.62739 459.11 -0.122643L462.398 3.1649L461.024 4.5388L457.663 1.17765C456.485 2.02816 455.201 2.54337 453.811 2.72329C452.437 2.88685 451.129 2.67422 449.886 2.08541C450.082 2.80507 450.082 3.65558 449.886 4.63693C449.722 5.61829 449.411 6.92677 448.953 8.56236C448.577 10.018 448.316 11.0975 448.168 11.8008C448.054 12.5041 448.111 13.0193 448.34 13.3465L448.978 14.475L447.776 15.6772L444.439 12.3406Z" fill="#2E3FFB"/>
<path d="M466.624 49.9143C466.346 49.6363 466.305 49.0883 466.501 48.2705C466.697 47.4527 467.09 46.1933 467.679 44.4923C468.3 42.7586 468.742 41.3683 469.004 40.3216C469.282 39.2584 469.347 38.3916 469.2 37.721C467.041 35.562 465.806 34.2944 465.495 33.9182L466.918 32.4952C467.409 33.1495 468.374 34.1963 469.813 35.6356C470.925 36.7478 472.079 37.3284 473.272 37.3775C474.499 37.4266 475.742 36.9359 477.002 35.9055L470.255 29.1586L471.629 27.7847L478.4 34.5561C479.365 33.493 479.872 32.4298 479.921 31.3667C480.003 30.3035 479.463 29.1259 478.302 27.8338L475.063 24.5463L476.339 23.1724L489.588 36.4207L488.238 37.77L483.16 32.6915C483.323 34.3598 482.702 35.9463 481.295 37.4511L484.583 40.7386L483.209 42.1125L479.848 38.7514C478.67 39.6019 477.386 40.1171 475.996 40.297C474.622 40.4606 473.313 40.248 472.07 39.6591C472.267 40.3788 472.267 41.2293 472.07 42.2107C471.907 43.192 471.596 44.5005 471.138 46.1361C470.762 47.5918 470.5 48.6713 470.353 49.3746C470.238 50.0779 470.296 50.5931 470.525 50.9202L471.163 52.0488L469.96 53.2509L466.624 49.9143Z" fill="#2E3FFB"/>
<path d="M535.171 49.9143C534.893 49.6363 534.852 49.0883 535.048 48.2705C535.244 47.4527 535.637 46.1933 536.226 44.4923C536.847 42.7586 537.289 41.3683 537.55 40.3216C537.828 39.2584 537.894 38.3916 537.747 37.721C535.588 35.562 534.353 34.2944 534.042 33.9182L535.465 32.4952C535.956 33.1495 536.921 34.1963 538.36 35.6356C539.472 36.7478 540.625 37.3284 541.819 37.3775C543.046 37.4266 544.289 36.9359 545.548 35.9055L538.802 29.1586L540.175 27.7847L546.947 34.5561C547.912 33.493 548.419 32.4298 548.468 31.3667C548.55 30.3035 548.01 29.1259 546.849 27.8338L543.61 24.5463L544.886 23.1724L558.134 36.4207L556.785 37.77L551.706 32.6915C551.87 34.3598 551.248 35.9463 549.842 37.4511L553.129 40.7386L551.755 42.1125L548.394 38.7514C547.217 39.6019 545.933 40.1171 544.543 40.297C543.169 40.4606 541.86 40.248 540.617 39.6591C540.813 40.3788 540.813 41.2293 540.617 42.2107C540.454 43.192 540.143 44.5005 539.685 46.1361C539.309 47.5918 539.047 48.6713 538.9 49.3746C538.785 50.0779 538.842 50.5931 539.071 50.9202L539.709 52.0488L538.507 53.2509L535.171 49.9143Z" fill="#2E3FFB"/>
<path d="M503.148 14.6888C502.87 14.4108 502.829 13.8629 503.026 13.0451C503.222 12.2273 503.614 10.9679 504.203 9.26685C504.825 7.53312 505.266 6.14287 505.528 5.09609C505.806 4.03295 505.871 3.16609 505.724 2.4955C503.565 0.336513 502.33 -0.931071 502.02 -1.30726L503.443 -2.73022C503.933 -2.07599 504.898 -1.02921 506.338 0.410116C507.45 1.52232 508.603 2.10295 509.797 2.15202C511.024 2.20109 512.267 1.71041 513.526 0.679988L506.779 -6.06683L508.153 -7.44073L514.924 -0.669377C515.889 -1.73251 516.397 -2.79565 516.446 -3.85878C516.527 -4.92192 515.988 -6.09955 514.826 -7.39166L511.588 -10.6792L512.864 -12.0531L526.112 1.1952L524.763 2.54457L519.684 -2.53395C519.848 -0.865647 519.226 0.720878 517.819 2.22562L521.107 5.51317L519.733 6.88707L516.372 3.52592C515.194 4.37643 513.91 4.89164 512.52 5.07156C511.146 5.23512 509.838 5.02249 508.595 4.43367C508.791 5.15334 508.791 6.00384 508.595 6.9852C508.431 7.96656 508.12 9.27503 507.662 10.9106C507.286 12.3663 507.025 13.4458 506.877 14.1491C506.763 14.8524 506.82 15.3676 507.049 15.6947L507.687 16.8233L506.485 18.0255L503.148 14.6888Z" fill="#2E3FFB"/>
<path d="M591.178 12.3406C590.9 12.0625 590.859 11.5146 591.055 10.6968C591.251 9.87901 591.644 8.6196 592.233 6.91858C592.854 5.18486 593.296 3.7946 593.557 2.74782C593.835 1.68469 593.901 0.817823 593.754 0.14723C591.595 -2.01175 590.36 -3.27934 590.049 -3.65552L591.472 -5.07849C591.963 -4.42425 592.928 -3.37747 594.367 -1.93815C595.479 -0.825948 596.632 -0.245312 597.826 -0.196245C599.053 -0.147177 600.296 -0.637855 601.555 -1.66828L594.809 -8.4151L596.182 -9.789L602.954 -3.01764C603.919 -4.08078 604.426 -5.14391 604.475 -6.20705C604.557 -7.27019 604.017 -8.44781 602.856 -9.73993L599.617 -13.0275L600.893 -14.4014L614.141 -1.15307L612.792 0.196299L607.713 -4.88222C607.877 -3.21391 607.255 -1.62739 605.849 -0.122643L609.136 3.1649L607.762 4.5388L604.401 1.17765C603.224 2.02816 601.94 2.54337 600.55 2.72329C599.176 2.88685 597.867 2.67422 596.624 2.08541C596.82 2.80507 596.82 3.65558 596.624 4.63693C596.461 5.61829 596.15 6.92677 595.692 8.56236C595.316 10.018 595.054 11.0975 594.907 11.8008C594.792 12.5041 594.849 13.0193 595.078 13.3465L595.716 14.475L594.514 15.6772L591.178 12.3406Z" fill="#2E3FFB"/>
<path d="M613.362 49.9143C613.084 49.6363 613.043 49.0883 613.24 48.2705C613.436 47.4527 613.828 46.1933 614.417 44.4923C615.039 42.7586 615.48 41.3683 615.742 40.3216C616.02 39.2584 616.085 38.3916 615.938 37.721C613.779 35.562 612.544 34.2944 612.234 33.9182L613.657 32.4952C614.147 33.1495 615.112 34.1963 616.552 35.6356C617.664 36.7478 618.817 37.3284 620.011 37.3775C621.238 37.4266 622.481 36.9359 623.74 35.9055L616.993 29.1586L618.367 27.7847L625.138 34.5561C626.103 33.493 626.611 32.4298 626.66 31.3667C626.741 30.3035 626.202 29.1259 625.04 27.8338L621.802 24.5463L623.078 23.1724L636.326 36.4207L634.977 37.77L629.898 32.6915C630.062 34.3598 629.44 35.9463 628.033 37.4511L631.321 40.7386L629.947 42.1125L626.586 38.7514C625.408 39.6019 624.124 40.1171 622.734 40.297C621.36 40.4606 620.052 40.248 618.809 39.6591C619.005 40.3788 619.005 41.2293 618.809 42.2107C618.645 43.192 618.334 44.5005 617.876 46.1361C617.5 47.5918 617.239 48.6713 617.091 49.3746C616.977 50.0779 617.034 50.5931 617.263 50.9202L617.901 52.0488L616.699 53.2509L613.362 49.9143Z" fill="#2E3FFB"/>
<path d="M681.909 49.9143C681.631 49.6363 681.59 49.0883 681.786 48.2705C681.983 47.4527 682.375 46.1933 682.964 44.4923C683.585 42.7586 684.027 41.3683 684.289 40.3216C684.567 39.2584 684.632 38.3916 684.485 37.721C682.326 35.562 681.091 34.2944 680.78 33.9182L682.203 32.4952C682.694 33.1495 683.659 34.1963 685.098 35.6356C686.211 36.7478 687.364 37.3284 688.558 37.3775C689.784 37.4266 691.027 36.9359 692.287 35.9055L685.54 29.1586L686.914 27.7847L693.685 34.5561C694.65 33.493 695.157 32.4298 695.206 31.3667C695.288 30.3035 694.748 29.1259 693.587 27.8338L690.349 24.5463L691.624 23.1724L704.873 36.4207L703.523 37.77L698.445 32.6915C698.608 34.3598 697.987 35.9463 696.58 37.4511L699.868 40.7386L698.494 42.1125L695.133 38.7514C693.955 39.6019 692.671 40.1171 691.281 40.297C689.907 40.4606 688.598 40.248 687.355 39.6591C687.552 40.3788 687.552 41.2293 687.355 42.2107C687.192 43.192 686.881 44.5005 686.423 46.1361C686.047 47.5918 685.785 48.6713 685.638 49.3746C685.524 50.0779 685.581 50.5931 685.81 50.9202L686.448 52.0488L685.246 53.2509L681.909 49.9143Z" fill="#2E3FFB"/>
<path d="M649.887 14.6888C649.609 14.4108 649.568 13.8629 649.764 13.0451C649.96 12.2273 650.353 10.9679 650.942 9.26685C651.563 7.53312 652.005 6.14287 652.266 5.09609C652.544 4.03295 652.61 3.16609 652.463 2.4955C650.304 0.336513 649.069 -0.931071 648.758 -1.30726L650.181 -2.73022C650.672 -2.07599 651.637 -1.02921 653.076 0.410116C654.188 1.52232 655.341 2.10295 656.535 2.15202C657.762 2.20109 659.005 1.71041 660.264 0.679988L653.518 -6.06683L654.891 -7.44073L661.663 -0.669377C662.628 -1.73251 663.135 -2.79565 663.184 -3.85878C663.266 -4.92192 662.726 -6.09955 661.565 -7.39166L658.326 -10.6792L659.602 -12.0531L672.85 1.1952L671.501 2.54457L666.422 -2.53395C666.586 -0.865647 665.964 0.720878 664.558 2.22562L667.845 5.51317L666.471 6.88707L663.11 3.52592C661.933 4.37643 660.649 4.89164 659.259 5.07156C657.885 5.23512 656.576 5.02249 655.333 4.43367C655.529 5.15334 655.529 6.00384 655.333 6.9852C655.17 7.96656 654.859 9.27503 654.401 10.9106C654.025 12.3663 653.763 13.4458 653.616 14.1491C653.501 14.8524 653.558 15.3676 653.787 15.6947L654.425 16.8233L653.223 18.0255L649.887 14.6888Z" fill="#2E3FFB"/>
<path d="M737.916 12.3406C737.638 12.0625 737.597 11.5146 737.793 10.6968C737.99 9.87901 738.382 8.6196 738.971 6.91858C739.593 5.18486 740.034 3.7946 740.296 2.74782C740.574 1.68469 740.639 0.817823 740.492 0.14723C738.333 -2.01175 737.098 -3.27934 736.787 -3.65552L738.21 -5.07849C738.701 -4.42425 739.666 -3.37747 741.105 -1.93815C742.218 -0.825948 743.371 -0.245312 744.565 -0.196245C745.791 -0.147177 747.034 -0.637855 748.294 -1.66828L741.547 -8.4151L742.921 -9.789L749.692 -3.01764C750.657 -4.08078 751.164 -5.14391 751.213 -6.20705C751.295 -7.27019 750.755 -8.44781 749.594 -9.73993L746.356 -13.0275L747.631 -14.4014L760.88 -1.15307L759.53 0.196299L754.452 -4.88222C754.615 -3.21391 753.994 -1.62739 752.587 -0.122643L755.875 3.1649L754.501 4.5388L751.14 1.17765C749.962 2.02816 748.678 2.54337 747.288 2.72329C745.914 2.88685 744.606 2.67422 743.363 2.08541C743.559 2.80507 743.559 3.65558 743.363 4.63693C743.199 5.61829 742.888 6.92677 742.43 8.56236C742.054 10.018 741.792 11.0975 741.645 11.8008C741.531 12.5041 741.588 13.0193 741.817 13.3465L742.455 14.475L741.253 15.6772L737.916 12.3406Z" fill="#2E3FFB"/>
<path d="M760.101 49.9143C759.823 49.6363 759.782 49.0883 759.978 48.2705C760.174 47.4527 760.567 46.1933 761.156 44.4923C761.777 42.7586 762.219 41.3683 762.48 40.3216C762.759 39.2584 762.824 38.3916 762.677 37.721C760.518 35.562 759.283 34.2944 758.972 33.9182L760.395 32.4952C760.886 33.1495 761.851 34.1963 763.29 35.6356C764.402 36.7478 765.555 37.3284 766.749 37.3775C767.976 37.4266 769.219 36.9359 770.479 35.9055L763.732 29.1586L765.106 27.7847L771.877 34.5561C772.842 33.493 773.349 32.4298 773.398 31.3667C773.48 30.3035 772.94 29.1259 771.779 27.8338L768.54 24.5463L769.816 23.1724L783.064 36.4207L781.715 37.77L776.637 32.6915C776.8 34.3598 776.179 35.9463 774.772 37.4511L778.059 40.7386L776.686 42.1125L773.324 38.7514C772.147 39.6019 770.863 40.1171 769.473 40.297C768.099 40.4606 766.79 40.248 765.547 39.6591C765.743 40.3788 765.743 41.2293 765.547 42.2107C765.384 43.192 765.073 44.5005 764.615 46.1361C764.239 47.5918 763.977 48.6713 763.83 49.3746C763.715 50.0779 763.773 50.5931 764.002 50.9202L764.639 52.0488L763.437 53.2509L760.101 49.9143Z" fill="#2E3FFB"/>
<path d="M828.647 49.9143C828.369 49.6363 828.328 49.0883 828.525 48.2705C828.721 47.4527 829.114 46.1933 829.702 44.4923C830.324 42.7586 830.766 41.3683 831.027 40.3216C831.305 39.2584 831.371 38.3916 831.223 37.721C829.065 35.562 827.83 34.2944 827.519 33.9182L828.942 32.4952C829.433 33.1495 830.398 34.1963 831.837 35.6356C832.949 36.7478 834.102 37.3284 835.296 37.3775C836.523 37.4266 837.766 36.9359 839.025 35.9055L832.278 29.1586L833.652 27.7847L840.424 34.5561C841.389 33.493 841.896 32.4298 841.945 31.3667C842.027 30.3035 841.487 29.1259 840.326 27.8338L837.087 24.5463L838.363 23.1724L851.611 36.4207L850.262 37.77L845.183 32.6915C845.347 34.3598 844.725 35.9463 843.319 37.4511L846.606 40.7386L845.232 42.1125L841.871 38.7514C840.694 39.6019 839.41 40.1171 838.019 40.297C836.645 40.4606 835.337 40.248 834.094 39.6591C834.29 40.3788 834.29 41.2293 834.094 42.2107C833.93 43.192 833.62 44.5005 833.162 46.1361C832.785 47.5918 832.524 48.6713 832.377 49.3746C832.262 50.0779 832.319 50.5931 832.548 50.9202L833.186 52.0488L831.984 53.2509L828.647 49.9143Z" fill="#2E3FFB"/>
<path d="M796.625 14.6888C796.347 14.4108 796.306 13.8629 796.502 13.0451C796.699 12.2273 797.091 10.9679 797.68 9.26685C798.302 7.53312 798.743 6.14287 799.005 5.09609C799.283 4.03295 799.348 3.16609 799.201 2.4955C797.042 0.336513 795.807 -0.931071 795.496 -1.30726L796.919 -2.73022C797.41 -2.07599 798.375 -1.02921 799.814 0.410116C800.927 1.52232 802.08 2.10295 803.274 2.15202C804.5 2.20109 805.743 1.71041 807.003 0.679988L800.256 -6.06683L801.63 -7.44073L808.401 -0.669377C809.366 -1.73251 809.873 -2.79565 809.922 -3.85878C810.004 -4.92192 809.464 -6.09955 808.303 -7.39166L805.065 -10.6792L806.34 -12.0531L819.589 1.1952L818.239 2.54457L813.161 -2.53395C813.324 -0.865647 812.703 0.720878 811.296 2.22562L814.584 5.51317L813.21 6.88707L809.849 3.52592C808.671 4.37643 807.387 4.89164 805.997 5.07156C804.623 5.23512 803.315 5.02249 802.072 4.43367C802.268 5.15334 802.268 6.00384 802.072 6.9852C801.908 7.96656 801.597 9.27503 801.139 10.9106C800.763 12.3663 800.501 13.4458 800.354 14.1491C800.24 14.8524 800.297 15.3676 800.526 15.6947L801.164 16.8233L799.962 18.0255L796.625 14.6888Z" fill="#2E3FFB"/>
<path d="M884.654 12.3406C884.376 12.0625 884.335 11.5146 884.532 10.6968C884.728 9.87901 885.121 8.6196 885.709 6.91858C886.331 5.18486 886.772 3.7946 887.034 2.74782C887.312 1.68469 887.378 0.817823 887.23 0.14723C885.071 -2.01175 883.837 -3.27934 883.526 -3.65552L884.949 -5.07849C885.439 -4.42425 886.404 -3.37747 887.844 -1.93815C888.956 -0.825948 890.109 -0.245312 891.303 -0.196245C892.53 -0.147177 893.773 -0.637855 895.032 -1.66828L888.285 -8.4151L889.659 -9.789L896.431 -3.01764C897.396 -4.08078 897.903 -5.14391 897.952 -6.20705C898.034 -7.27019 897.494 -8.44781 896.333 -9.73993L893.094 -13.0275L894.37 -14.4014L907.618 -1.15307L906.269 0.196299L901.19 -4.88222C901.354 -3.21391 900.732 -1.62739 899.326 -0.122643L902.613 3.1649L901.239 4.5388L897.878 1.17765C896.701 2.02816 895.417 2.54337 894.026 2.72329C892.652 2.88685 891.344 2.67422 890.101 2.08541C890.297 2.80507 890.297 3.65558 890.101 4.63693C889.937 5.61829 889.627 6.92677 889.169 8.56236C888.792 10.018 888.531 11.0975 888.384 11.8008C888.269 12.5041 888.326 13.0193 888.555 13.3465L889.193 14.475L887.991 15.6772L884.654 12.3406Z" fill="#2E3FFB"/>
<path d="M906.839 49.9143C906.561 49.6363 906.52 49.0883 906.716 48.2705C906.913 47.4527 907.305 46.1933 907.894 44.4923C908.515 42.7586 908.957 41.3683 909.219 40.3216C909.497 39.2584 909.562 38.3916 909.415 37.721C907.256 35.562 906.021 34.2944 905.71 33.9182L907.133 32.4952C907.624 33.1495 908.589 34.1963 910.028 35.6356C911.141 36.7478 912.294 37.3284 913.488 37.3775C914.714 37.4266 915.957 36.9359 917.217 35.9055L910.47 29.1586L911.844 27.7847L918.615 34.5561C919.58 33.493 920.087 32.4298 920.136 31.3667C920.218 30.3035 919.678 29.1259 918.517 27.8338L915.279 24.5463L916.554 23.1724L929.803 36.4207L928.453 37.77L923.375 32.6915C923.538 34.3598 922.917 35.9463 921.51 37.4511L924.798 40.7386L923.424 42.1125L920.063 38.7514C918.885 39.6019 917.601 40.1171 916.211 40.297C914.837 40.4606 913.529 40.248 912.286 39.6591C912.482 40.3788 912.482 41.2293 912.286 42.2107C912.122 43.192 911.811 44.5005 911.353 46.1361C910.977 47.5918 910.715 48.6713 910.568 49.3746C910.454 50.0779 910.511 50.5931 910.74 50.9202L911.378 52.0488L910.176 53.2509L906.839 49.9143Z" fill="#2E3FFB"/>
<path d="M975.386 49.9143C975.108 49.6363 975.067 49.0883 975.263 48.2705C975.459 47.4527 975.852 46.1933 976.441 44.4923C977.062 42.7586 977.504 41.3683 977.766 40.3216C978.044 39.2584 978.109 38.3916 977.962 37.721C975.803 35.562 974.568 34.2944 974.257 33.9182L975.68 32.4952C976.171 33.1495 977.136 34.1963 978.575 35.6356C979.687 36.7478 980.84 37.3284 982.034 37.3775C983.261 37.4266 984.504 36.9359 985.764 35.9055L979.017 29.1586L980.391 27.7847L987.162 34.5561C988.127 33.493 988.634 32.4298 988.683 31.3667C988.765 30.3035 988.225 29.1259 987.064 27.8338L983.825 24.5463L985.101 23.1724L998.349 36.4207L997 37.77L991.922 32.6915C992.085 34.3598 991.464 35.9463 990.057 37.4511L993.345 40.7386L991.971 42.1125L988.61 38.7514C987.432 39.6019 986.148 40.1171 984.758 40.297C983.384 40.4606 982.075 40.248 980.832 39.6591C981.029 40.3788 981.029 41.2293 980.832 42.2107C980.669 43.192 980.358 44.5005 979.9 46.1361C979.524 47.5918 979.262 48.6713 979.115 49.3746C979 50.0779 979.058 50.5931 979.287 50.9202L979.925 52.0488L978.722 53.2509L975.386 49.9143Z" fill="#2E3FFB"/>
<path d="M943.363 14.6888C943.085 14.4108 943.044 13.8629 943.241 13.0451C943.437 12.2273 943.83 10.9679 944.418 9.26685C945.04 7.53312 945.482 6.14287 945.743 5.09609C946.021 4.03295 946.087 3.16609 945.939 2.4955C943.781 0.336513 942.546 -0.931071 942.235 -1.30726L943.658 -2.73022C944.149 -2.07599 945.114 -1.02921 946.553 0.410116C947.665 1.52232 948.818 2.10295 950.012 2.15202C951.239 2.20109 952.482 1.71041 953.741 0.679988L946.994 -6.06683L948.368 -7.44073L955.14 -0.669377C956.105 -1.73251 956.612 -2.79565 956.661 -3.85878C956.743 -4.92192 956.203 -6.09955 955.042 -7.39166L951.803 -10.6792L953.079 -12.0531L966.327 1.1952L964.978 2.54457L959.899 -2.53395C960.063 -0.865647 959.441 0.720878 958.035 2.22562L961.322 5.51317L959.948 6.88707L956.587 3.52592C955.41 4.37643 954.126 4.89164 952.735 5.07156C951.361 5.23512 950.053 5.02249 948.81 4.43367C949.006 5.15334 949.006 6.00384 948.81 6.9852C948.646 7.96656 948.336 9.27503 947.878 10.9106C947.501 12.3663 947.24 13.4458 947.093 14.1491C946.978 14.8524 947.035 15.3676 947.264 15.6947L947.902 16.8233L946.7 18.0255L943.363 14.6888Z" fill="#2E3FFB"/>
<path d="M1031.39 12.3406C1031.11 12.0625 1031.07 11.5146 1031.27 10.6968C1031.47 9.87901 1031.86 8.6196 1032.45 6.91858C1033.07 5.18486 1033.51 3.7946 1033.77 2.74782C1034.05 1.68469 1034.12 0.817823 1033.97 0.14723C1031.81 -2.01175 1030.58 -3.27934 1030.26 -3.65552L1031.69 -5.07849C1032.18 -4.42425 1033.14 -3.37747 1034.58 -1.93815C1035.69 -0.825948 1036.85 -0.245312 1038.04 -0.196245C1039.27 -0.147177 1040.51 -0.637855 1041.77 -1.66828L1035.02 -8.4151L1036.4 -9.789L1043.17 -3.01764C1044.13 -4.08078 1044.64 -5.14391 1044.69 -6.20705C1044.77 -7.27019 1044.23 -8.44781 1043.07 -9.73993L1039.83 -13.0275L1041.11 -14.4014L1054.36 -1.15307L1053.01 0.196299L1047.93 -4.88222C1048.09 -3.21391 1047.47 -1.62739 1046.06 -0.122643L1049.35 3.1649L1047.98 4.5388L1044.62 1.17765C1043.44 2.02816 1042.16 2.54337 1040.76 2.72329C1039.39 2.88685 1038.08 2.67422 1036.84 2.08541C1037.04 2.80507 1037.04 3.65558 1036.84 4.63693C1036.68 5.61829 1036.37 6.92677 1035.91 8.56236C1035.53 10.018 1035.27 11.0975 1035.12 11.8008C1035.01 12.5041 1035.06 13.0193 1035.29 13.3465L1035.93 14.475L1034.73 15.6772L1031.39 12.3406Z" fill="#2E3FFB"/>
<path d="M1053.58 49.9143C1053.3 49.6363 1053.26 49.0883 1053.45 48.2705C1053.65 47.4527 1054.04 46.1933 1054.63 44.4923C1055.25 42.7586 1055.7 41.3683 1055.96 40.3216C1056.24 39.2584 1056.3 38.3916 1056.15 37.721C1053.99 35.562 1052.76 34.2944 1052.45 33.9182L1053.87 32.4952C1054.36 33.1495 1055.33 34.1963 1056.77 35.6356C1057.88 36.7478 1059.03 37.3284 1060.23 37.3775C1061.45 37.4266 1062.7 36.9359 1063.96 35.9055L1057.21 29.1586L1058.58 27.7847L1065.35 34.5561C1066.32 33.493 1066.83 32.4298 1066.87 31.3667C1066.96 30.3035 1066.42 29.1259 1065.26 27.8338L1062.02 24.5463L1063.29 23.1724L1076.54 36.4207L1075.19 37.77L1070.11 32.6915C1070.28 34.3598 1069.66 35.9463 1068.25 37.4511L1071.54 40.7386L1070.16 42.1125L1066.8 38.7514C1065.62 39.6019 1064.34 40.1171 1062.95 40.297C1061.58 40.4606 1060.27 40.248 1059.02 39.6591C1059.22 40.3788 1059.22 41.2293 1059.02 42.2107C1058.86 43.192 1058.55 44.5005 1058.09 46.1361C1057.72 47.5918 1057.45 48.6713 1057.31 49.3746C1057.19 50.0779 1057.25 50.5931 1057.48 50.9202L1058.12 52.0488L1056.91 53.2509L1053.58 49.9143Z" fill="#2E3FFB"/>
<path d="M1122.12 49.9143C1121.85 49.6363 1121.81 49.0883 1122 48.2705C1122.2 47.4527 1122.59 46.1933 1123.18 44.4923C1123.8 42.7586 1124.24 41.3683 1124.5 40.3216C1124.78 39.2584 1124.85 38.3916 1124.7 37.721C1122.54 35.562 1121.31 34.2944 1121 33.9182L1122.42 32.4952C1122.91 33.1495 1123.87 34.1963 1125.31 35.6356C1126.43 36.7478 1127.58 37.3284 1128.77 37.3775C1130 37.4266 1131.24 36.9359 1132.5 35.9055L1125.76 29.1586L1127.13 27.7847L1133.9 34.5561C1134.87 33.493 1135.37 32.4298 1135.42 31.3667C1135.5 30.3035 1134.96 29.1259 1133.8 27.8338L1130.56 24.5463L1131.84 23.1724L1145.09 36.4207L1143.74 37.77L1138.66 32.6915C1138.82 34.3598 1138.2 35.9463 1136.8 37.4511L1140.08 40.7386L1138.71 42.1125L1135.35 38.7514C1134.17 39.6019 1132.89 40.1171 1131.5 40.297C1130.12 40.4606 1128.81 40.248 1127.57 39.6591C1127.77 40.3788 1127.77 41.2293 1127.57 42.2107C1127.41 43.192 1127.1 44.5005 1126.64 46.1361C1126.26 47.5918 1126 48.6713 1125.85 49.3746C1125.74 50.0779 1125.8 50.5931 1126.03 50.9202L1126.66 52.0488L1125.46 53.2509L1122.12 49.9143Z" fill="#2E3FFB"/>
<path d="M1090.1 14.6888C1089.82 14.4108 1089.78 13.8629 1089.98 13.0451C1090.18 12.2273 1090.57 10.9679 1091.16 9.26685C1091.78 7.53312 1092.22 6.14287 1092.48 5.09609C1092.76 4.03295 1092.83 3.16609 1092.68 2.4955C1090.52 0.336513 1089.28 -0.931071 1088.97 -1.30726L1090.4 -2.73022C1090.89 -2.07599 1091.85 -1.02921 1093.29 0.410116C1094.4 1.52232 1095.56 2.10295 1096.75 2.15202C1097.98 2.20109 1099.22 1.71041 1100.48 0.679988L1093.73 -6.06683L1095.11 -7.44073L1101.88 -0.669377C1102.84 -1.73251 1103.35 -2.79565 1103.4 -3.85878C1103.48 -4.92192 1102.94 -6.09955 1101.78 -7.39166L1098.54 -10.6792L1099.82 -12.0531L1113.07 1.1952L1111.72 2.54457L1106.64 -2.53395C1106.8 -0.865647 1106.18 0.720878 1104.77 2.22562L1108.06 5.51317L1106.69 6.88707L1103.33 3.52592C1102.15 4.37643 1100.86 4.89164 1099.47 5.07156C1098.1 5.23512 1096.79 5.02249 1095.55 4.43367C1095.74 5.15334 1095.74 6.00384 1095.55 6.9852C1095.38 7.96656 1095.07 9.27503 1094.62 10.9106C1094.24 12.3663 1093.98 13.4458 1093.83 14.1491C1093.72 14.8524 1093.77 15.3676 1094 15.6947L1094.64 16.8233L1093.44 18.0255L1090.1 14.6888Z" fill="#2E3FFB"/>
<path d="M1178.13 12.3406C1177.85 12.0625 1177.81 11.5146 1178.01 10.6968C1178.2 9.87901 1178.6 8.6196 1179.19 6.91858C1179.81 5.18486 1180.25 3.7946 1180.51 2.74782C1180.79 1.68469 1180.85 0.817823 1180.71 0.14723C1178.55 -2.01175 1177.31 -3.27934 1177 -3.65552L1178.43 -5.07849C1178.92 -4.42425 1179.88 -3.37747 1181.32 -1.93815C1182.43 -0.825948 1183.59 -0.245312 1184.78 -0.196245C1186.01 -0.147177 1187.25 -0.637855 1188.51 -1.66828L1181.76 -8.4151L1183.14 -9.789L1189.91 -3.01764C1190.87 -4.08078 1191.38 -5.14391 1191.43 -6.20705C1191.51 -7.27019 1190.97 -8.44781 1189.81 -9.73993L1186.57 -13.0275L1187.85 -14.4014L1201.09 -1.15307L1199.75 0.196299L1194.67 -4.88222C1194.83 -3.21391 1194.21 -1.62739 1192.8 -0.122643L1196.09 3.1649L1194.72 4.5388L1191.36 1.17765C1190.18 2.02816 1188.89 2.54337 1187.5 2.72329C1186.13 2.88685 1184.82 2.67422 1183.58 2.08541C1183.77 2.80507 1183.77 3.65558 1183.58 4.63693C1183.41 5.61829 1183.1 6.92677 1182.65 8.56236C1182.27 10.018 1182.01 11.0975 1181.86 11.8008C1181.75 12.5041 1181.8 13.0193 1182.03 13.3465L1182.67 14.475L1181.47 15.6772L1178.13 12.3406Z" fill="#2E3FFB"/>
<path d="M1200.32 49.9143C1200.04 49.6363 1200 49.0883 1200.19 48.2705C1200.39 47.4527 1200.78 46.1933 1201.37 44.4923C1201.99 42.7586 1202.43 41.3683 1202.7 40.3216C1202.97 39.2584 1203.04 38.3916 1202.89 37.721C1200.73 35.562 1199.5 34.2944 1199.19 33.9182L1200.61 32.4952C1201.1 33.1495 1202.07 34.1963 1203.51 35.6356C1204.62 36.7478 1205.77 37.3284 1206.96 37.3775C1208.19 37.4266 1209.43 36.9359 1210.69 35.9055L1203.95 29.1586L1205.32 27.7847L1212.09 34.5561C1213.06 33.493 1213.56 32.4298 1213.61 31.3667C1213.7 30.3035 1213.16 29.1259 1211.99 27.8338L1208.76 24.5463L1210.03 23.1724L1223.28 36.4207L1221.93 37.77L1216.85 32.6915C1217.02 34.3598 1216.39 35.9463 1214.99 37.4511L1218.27 40.7386L1216.9 42.1125L1213.54 38.7514C1212.36 39.6019 1211.08 40.1171 1209.69 40.297C1208.31 40.4606 1207.01 40.248 1205.76 39.6591C1205.96 40.3788 1205.96 41.2293 1205.76 42.2107C1205.6 43.192 1205.29 44.5005 1204.83 46.1361C1204.45 47.5918 1204.19 48.6713 1204.05 49.3746C1203.93 50.0779 1203.99 50.5931 1204.22 50.9202L1204.85 52.0488L1203.65 53.2509L1200.32 49.9143Z" fill="#2E3FFB"/>
<path d="M1268.86 49.9143C1268.58 49.6363 1268.54 49.0883 1268.74 48.2705C1268.94 47.4527 1269.33 46.1933 1269.92 44.4923C1270.54 42.7586 1270.98 41.3683 1271.24 40.3216C1271.52 39.2584 1271.59 38.3916 1271.44 37.721C1269.28 35.562 1268.04 34.2944 1267.73 33.9182L1269.16 32.4952C1269.65 33.1495 1270.61 34.1963 1272.05 35.6356C1273.16 36.7478 1274.32 37.3284 1275.51 37.3775C1276.74 37.4266 1277.98 36.9359 1279.24 35.9055L1272.49 29.1586L1273.87 27.7847L1280.64 34.5561C1281.6 33.493 1282.11 32.4298 1282.16 31.3667C1282.24 30.3035 1281.7 29.1259 1280.54 27.8338L1277.3 24.5463L1278.58 23.1724L1291.83 36.4207L1290.48 37.77L1285.4 32.6915C1285.56 34.3598 1284.94 35.9463 1283.53 37.4511L1286.82 40.7386L1285.45 42.1125L1282.09 38.7514C1280.91 39.6019 1279.62 40.1171 1278.23 40.297C1276.86 40.4606 1275.55 40.248 1274.31 39.6591C1274.51 40.3788 1274.51 41.2293 1274.31 42.2107C1274.15 43.192 1273.83 44.5005 1273.38 46.1361C1273 47.5918 1272.74 48.6713 1272.59 49.3746C1272.48 50.0779 1272.53 50.5931 1272.76 50.9202L1273.4 52.0488L1272.2 53.2509L1268.86 49.9143Z" fill="#2E3FFB"/>
<path d="M1236.84 14.6888C1236.56 14.4108 1236.52 13.8629 1236.72 13.0451C1236.91 12.2273 1237.31 10.9679 1237.9 9.26685C1238.52 7.53312 1238.96 6.14287 1239.22 5.09609C1239.5 4.03295 1239.56 3.16609 1239.42 2.4955C1237.26 0.336513 1236.02 -0.931071 1235.71 -1.30726L1237.13 -2.73022C1237.63 -2.07599 1238.59 -1.02921 1240.03 0.410116C1241.14 1.52232 1242.3 2.10295 1243.49 2.15202C1244.72 2.20109 1245.96 1.71041 1247.22 0.679988L1240.47 -6.06683L1241.85 -7.44073L1248.62 -0.669377C1249.58 -1.73251 1250.09 -2.79565 1250.14 -3.85878C1250.22 -4.92192 1249.68 -6.09955 1248.52 -7.39166L1245.28 -10.6792L1246.56 -12.0531L1259.8 1.1952L1258.45 2.54457L1253.38 -2.53395C1253.54 -0.865647 1252.92 0.720878 1251.51 2.22562L1254.8 5.51317L1253.43 6.88707L1250.06 3.52592C1248.89 4.37643 1247.6 4.89164 1246.21 5.07156C1244.84 5.23512 1243.53 5.02249 1242.29 4.43367C1242.48 5.15334 1242.48 6.00384 1242.29 6.9852C1242.12 7.96656 1241.81 9.27503 1241.35 10.9106C1240.98 12.3663 1240.72 13.4458 1240.57 14.1491C1240.46 14.8524 1240.51 15.3676 1240.74 15.6947L1241.38 16.8233L1240.18 18.0255L1236.84 14.6888Z" fill="#2E3FFB"/>
<path d="M1324.87 12.3406C1324.59 12.0625 1324.55 11.5146 1324.75 10.6968C1324.94 9.87901 1325.34 8.6196 1325.92 6.91858C1326.55 5.18486 1326.99 3.7946 1327.25 2.74782C1327.53 1.68469 1327.59 0.817823 1327.45 0.14723C1325.29 -2.01175 1324.05 -3.27934 1323.74 -3.65552L1325.16 -5.07849C1325.65 -4.42425 1326.62 -3.37747 1328.06 -1.93815C1329.17 -0.825948 1330.32 -0.245312 1331.52 -0.196245C1332.75 -0.147177 1333.99 -0.637855 1335.25 -1.66828L1328.5 -8.4151L1329.87 -9.789L1336.65 -3.01764C1337.61 -4.08078 1338.12 -5.14391 1338.17 -6.20705C1338.25 -7.27019 1337.71 -8.44781 1336.55 -9.73993L1333.31 -13.0275L1334.59 -14.4014L1347.83 -1.15307L1346.48 0.196299L1341.41 -4.88222C1341.57 -3.21391 1340.95 -1.62739 1339.54 -0.122643L1342.83 3.1649L1341.45 4.5388L1338.09 1.17765C1336.92 2.02816 1335.63 2.54337 1334.24 2.72329C1332.87 2.88685 1331.56 2.67422 1330.32 2.08541C1330.51 2.80507 1330.51 3.65558 1330.32 4.63693C1330.15 5.61829 1329.84 6.92677 1329.38 8.56236C1329.01 10.018 1328.75 11.0975 1328.6 11.8008C1328.48 12.5041 1328.54 13.0193 1328.77 13.3465L1329.41 14.475L1328.21 15.6772L1324.87 12.3406Z" fill="#2E3FFB"/>
<path d="M1347.05 49.9143C1346.78 49.6363 1346.74 49.0883 1346.93 48.2705C1347.13 47.4527 1347.52 46.1933 1348.11 44.4923C1348.73 42.7586 1349.17 41.3683 1349.43 40.3216C1349.71 39.2584 1349.78 38.3916 1349.63 37.721C1347.47 35.562 1346.24 34.2944 1345.93 33.9182L1347.35 32.4952C1347.84 33.1495 1348.8 34.1963 1350.24 35.6356C1351.36 36.7478 1352.51 37.3284 1353.7 37.3775C1354.93 37.4266 1356.17 36.9359 1357.43 35.9055L1350.69 29.1586L1352.06 27.7847L1358.83 34.5561C1359.8 33.493 1360.3 32.4298 1360.35 31.3667C1360.43 30.3035 1359.89 29.1259 1358.73 27.8338L1355.49 24.5463L1356.77 23.1724L1370.02 36.4207L1368.67 37.77L1363.59 32.6915C1363.75 34.3598 1363.13 35.9463 1361.73 37.4511L1365.01 40.7386L1363.64 42.1125L1360.28 38.7514C1359.1 39.6019 1357.82 40.1171 1356.43 40.297C1355.05 40.4606 1353.74 40.248 1352.5 39.6591C1352.7 40.3788 1352.7 41.2293 1352.5 42.2107C1352.34 43.192 1352.03 44.5005 1351.57 46.1361C1351.19 47.5918 1350.93 48.6713 1350.78 49.3746C1350.67 50.0779 1350.73 50.5931 1350.96 50.9202L1351.59 52.0488L1350.39 53.2509L1347.05 49.9143Z" fill="#2E3FFB"/>
<path d="M1415.6 49.9143C1415.32 49.6363 1415.28 49.0883 1415.48 48.2705C1415.67 47.4527 1416.07 46.1933 1416.66 44.4923C1417.28 42.7586 1417.72 41.3683 1417.98 40.3216C1418.26 39.2584 1418.32 38.3916 1418.18 37.721C1416.02 35.562 1414.78 34.2944 1414.47 33.9182L1415.9 32.4952C1416.39 33.1495 1417.35 34.1963 1418.79 35.6356C1419.9 36.7478 1421.06 37.3284 1422.25 37.3775C1423.48 37.4266 1424.72 36.9359 1425.98 35.9055L1419.23 29.1586L1420.61 27.7847L1427.38 34.5561C1428.34 33.493 1428.85 32.4298 1428.9 31.3667C1428.98 30.3035 1428.44 29.1259 1427.28 27.8338L1424.04 24.5463L1425.32 23.1724L1438.56 36.4207L1437.22 37.77L1432.14 32.6915C1432.3 34.3598 1431.68 35.9463 1430.27 37.4511L1433.56 40.7386L1432.19 42.1125L1428.82 38.7514C1427.65 39.6019 1426.36 40.1171 1424.97 40.297C1423.6 40.4606 1422.29 40.248 1421.05 39.6591C1421.24 40.3788 1421.24 41.2293 1421.05 42.2107C1420.88 43.192 1420.57 44.5005 1420.12 46.1361C1419.74 47.5918 1419.48 48.6713 1419.33 49.3746C1419.22 50.0779 1419.27 50.5931 1419.5 50.9202L1420.14 52.0488L1418.94 53.2509L1415.6 49.9143Z" fill="#2E3FFB"/>
<path d="M1383.58 14.6888C1383.3 14.4108 1383.26 13.8629 1383.46 13.0451C1383.65 12.2273 1384.04 10.9679 1384.63 9.26685C1385.26 7.53312 1385.7 6.14287 1385.96 5.09609C1386.24 4.03295 1386.3 3.16609 1386.15 2.4955C1384 0.336513 1382.76 -0.931071 1382.45 -1.30726L1383.87 -2.73022C1384.36 -2.07599 1385.33 -1.02921 1386.77 0.410116C1387.88 1.52232 1389.03 2.10295 1390.23 2.15202C1391.45 2.20109 1392.7 1.71041 1393.96 0.679988L1387.21 -6.06683L1388.58 -7.44073L1395.36 -0.669377C1396.32 -1.73251 1396.83 -2.79565 1396.88 -3.85878C1396.96 -4.92192 1396.42 -6.09955 1395.26 -7.39166L1392.02 -10.6792L1393.29 -12.0531L1406.54 1.1952L1405.19 2.54457L1400.11 -2.53395C1400.28 -0.865647 1399.66 0.720878 1398.25 2.22562L1401.54 5.51317L1400.16 6.88707L1396.8 3.52592C1395.62 4.37643 1394.34 4.89164 1392.95 5.07156C1391.58 5.23512 1390.27 5.02249 1389.03 4.43367C1389.22 5.15334 1389.22 6.00384 1389.03 6.9852C1388.86 7.96656 1388.55 9.27503 1388.09 10.9106C1387.72 12.3663 1387.46 13.4458 1387.31 14.1491C1387.19 14.8524 1387.25 15.3676 1387.48 15.6947L1388.12 16.8233L1386.92 18.0255L1383.58 14.6888Z" fill="#2E3FFB"/>
</g>
<defs>
<clipPath id="clip0">
<rect width="1436" height="510" fill="white"/>
</clipPath>
</defs>
</svg>
