<?xml version="1.0" encoding="utf-8"?>
<!-- Generator: Adobe Illustrator 24.0.1, SVG Export Plug-In . SVG Version: 6.00 Build 0)  -->
<svg version="1.1" id="Layer_1" xmlns="http://www.w3.org/2000/svg" xmlns:xlink="http://www.w3.org/1999/xlink" x="0px" y="0px"
	 viewBox="0 0 526 120" style="enable-background:new 0 0 526 120;" xml:space="preserve">
<style type="text/css">
	.st0{fill:#FFFFFF;}
	.st1{fill:#2962FF;}
</style>
<g>
	<g>
		<path class="st0" d="M458.4,98.4c-6.8-3.7-12.2-8.9-16.1-15.5c-3.9-6.6-5.8-13.9-5.8-22s1.9-15.4,5.8-22
			c3.9-6.6,9.2-11.7,16.1-15.5c6.8-3.7,14.5-5.6,23-5.6c8.4,0,16,1.9,22.9,5.6c6.8,3.7,12.1,8.9,16,15.4c3.9,6.5,5.8,13.9,5.8,22.1
			c0,8.2-1.9,15.5-5.8,22.1c-3.8,6.5-9.2,11.7-16,15.4c-6.8,3.7-14.4,5.6-22.9,5.6C472.9,104,465.2,102.1,458.4,98.4z M498,89.1
			c4.9-2.8,8.8-6.7,11.7-11.6c2.8-4.9,4.3-10.4,4.3-16.5c0-6.1-1.4-11.6-4.3-16.5c-2.9-4.9-6.7-8.8-11.7-11.6
			c-4.9-2.8-10.5-4.2-16.7-4.2s-11.8,1.4-16.8,4.2c-5,2.8-8.9,6.7-11.8,11.6c-2.9,4.9-4.3,10.4-4.3,16.5c0,6.1,1.4,11.6,4.3,16.5
			c2.8,4.9,6.8,8.8,11.8,11.6c5,2.8,10.6,4.2,16.8,4.2C487.6,93.3,493.1,91.9,498,89.1z"/>
		<path class="st0" d="M147.7,93.9c-6.3-6.4-9.4-15.6-9.4-27.7V18.4h12v47.4c0,18,7.9,27.1,23.7,27.1c7.7,0,13.6-2.2,17.7-6.7
			c4.1-4.4,6.1-11.2,6.1-20.4V18.4h11.7v47.9c0,12.1-3.1,21.4-9.4,27.7c-6.3,6.4-15,9.6-26.2,9.6
			C162.7,103.5,153.9,100.3,147.7,93.9z"/>
		<path class="st0" d="M234.1,18.9h12V103h-12V18.9z"/>
		<path class="st0" d="M286.3,98.4c-6.8-3.7-12.1-8.9-15.9-15.4c-3.9-6.5-5.8-13.9-5.8-22.1c0-8.2,1.9-15.5,5.8-22.1
			c3.9-6.5,9.2-11.7,16-15.4c6.8-3.7,14.4-5.6,22.9-5.6c6.6,0,12.6,1.1,18,3.3c5.4,2.2,10.1,5.5,13.9,9.8l-7.8,7.6
			c-6.3-6.7-14.2-10-23.7-10c-6.3,0-11.9,1.4-17,4.2c-5.1,2.8-9,6.7-11.8,11.6c-2.8,4.9-4.3,10.4-4.3,16.5c0,6.1,1.4,11.6,4.3,16.5
			c2.8,4.9,6.8,8.8,11.8,11.6c5.1,2.8,10.7,4.2,17,4.2c9.4,0,17.3-3.4,23.7-10.1l7.8,7.6c-3.8,4.3-8.5,7.6-14,9.9
			c-5.5,2.2-11.5,3.4-18.1,3.4C300.7,104,293.1,102.1,286.3,98.4z"/>
		<path class="st0" d="M385.8,65.6l-15.4,15.6v21.8h-12V18.9h12v47l45.7-47h13.7l-36,37.9l38.2,46.3H418L385.8,65.6z"/>
		<path class="st0" d="M481.3,16.7c-24.4,0-44.3,19.8-44.3,44.3s19.8,44.3,44.3,44.3c24.4,0,44.3-19.8,44.3-44.3
			C525.5,36.5,505.7,16.7,481.3,16.7z M481.3,93.4c-17.9,0-32.4-14.5-32.4-32.4c0-17.9,14.5-32.4,32.4-32.4
			c17.9,0,32.4,14.5,32.4,32.4C513.7,78.9,499.2,93.4,481.3,93.4z"/>
	</g>
	<g>
		<path class="st0" d="M59.7,31.6c-17,0-30.7,13.8-30.7,30.7c0,12.9,7.9,23.9,19.1,28.4l12.3-12.3l11.9,11.9
			c10.7-4.8,18.1-15.6,18.1-28C90.4,45.4,76.6,31.6,59.7,31.6z M59.7,31.6c-17,0-30.7,13.8-30.7,30.7c0,12.9,7.9,23.9,19.1,28.4
			l12.3-12.3l11.9,11.9c10.7-4.8,18.1-15.6,18.1-28C90.4,45.4,76.6,31.6,59.7,31.6z M59.7,31.6c-17,0-30.7,13.8-30.7,30.7
			c0,12.9,7.9,23.9,19.1,28.4l12.3-12.3l11.9,11.9c10.7-4.8,18.1-15.6,18.1-28C90.4,45.4,76.6,31.6,59.7,31.6z M60,0.5
			c-33.1,0-60,26.9-60,60c0,33.1,26.9,60,60,60c5.4,0,10.7-0.7,15.7-2.1l-9.1-9.1c-2.2,0.3-4.4,0.5-6.6,0.5
			c-26.2,0-47.5-21.2-47.5-47.5S33.8,14.9,60,14.9c26.2,0,47.5,21.3,47.5,47.5c0,17.1-9.1,32.2-22.7,40.5l7.9,7.9
			c16.4-10.7,27.3-29.2,27.3-50.3C120,27.4,93.1,0.5,60,0.5z M59.7,31.6c-17,0-30.7,13.8-30.7,30.7c0,12.9,7.9,23.9,19.1,28.4
			l12.3-12.3l11.9,11.9c10.7-4.8,18.1-15.6,18.1-28C90.4,45.4,76.6,31.6,59.7,31.6z M59.7,31.6c-17,0-30.7,13.8-30.7,30.7
			c0,12.9,7.9,23.9,19.1,28.4l12.3-12.3l11.9,11.9c10.7-4.8,18.1-15.6,18.1-28C90.4,45.4,76.6,31.6,59.7,31.6z M59.7,31.6
			c-17,0-30.7,13.8-30.7,30.7c0,12.9,7.9,23.9,19.1,28.4l12.3-12.3l11.9,11.9c10.7-4.8,18.1-15.6,18.1-28
			C90.4,45.4,76.6,31.6,59.7,31.6z"/>
		<path class="st1" d="M92.7,110.8c0,0-0.1,0-0.1,0.1C92.7,110.9,92.7,110.8,92.7,110.8L92.7,110.8z"/>
	</g>
</g>
</svg>
