<?xml version="1.0" encoding="utf-8"?>
<!-- Generator: Adobe Illustrator 16.0.0, SVG Export Plug-In . SVG Version: 6.00 Build 0)  -->
<!DOCTYPE svg PUBLIC "-//W3C//DTD SVG 1.1//EN" "http://www.w3.org/Graphics/SVG/1.1/DTD/svg11.dtd">
<svg version="1.1" id="Layer_1" xmlns="http://www.w3.org/2000/svg" xmlns:xlink="http://www.w3.org/1999/xlink" x="0px" y="0px"
	 width="526px" height="120px" viewBox="0 0 526 120" enable-background="new 0 0 526 120" xml:space="preserve">
<g>
	<path fill="#FFFFFF" d="M458.328,97.902c-6.814-3.729-12.166-8.877-16.059-15.452c-3.889-6.573-5.826-13.909-5.826-22.007
		s1.938-15.433,5.826-22.006c3.893-6.574,9.238-11.726,16.059-15.453c6.813-3.729,14.471-5.594,22.969-5.594
		c8.418,0,16.035,1.865,22.85,5.594c6.814,3.728,12.146,8.857,15.992,15.392c3.854,6.535,5.773,13.89,5.773,22.065
		c0,8.179-1.924,15.538-5.773,22.067c-3.848,6.535-9.182,11.665-15.992,15.395c-6.813,3.729-14.432,5.595-22.85,5.595
		C472.797,103.494,465.141,101.631,458.328,97.902z M497.953,88.583c4.93-2.806,8.813-6.673,11.664-11.604
		c2.846-4.931,4.27-10.438,4.27-16.535c0-6.092-1.424-11.604-4.27-16.536c-2.852-4.931-6.734-8.796-11.664-11.603
		c-4.934-2.806-10.482-4.211-16.656-4.211s-11.766,1.405-16.773,4.211c-5.012,2.807-8.938,6.672-11.781,11.603
		c-2.852,4.932-4.271,10.444-4.271,16.536c0,6.094,1.422,11.604,4.271,16.535c2.844,4.937,6.771,8.805,11.781,11.604
		c5.012,2.808,10.604,4.209,16.773,4.209C487.469,92.792,493.021,91.391,497.953,88.583z"/>
	<path fill="#FFFFFF" d="M147.646,93.395c-6.252-6.414-9.38-15.635-9.38-27.66V17.873h12.026v47.381
		c0,18.038,7.896,27.057,23.689,27.057c7.697,0,13.589-2.226,17.677-6.674c4.09-4.449,6.134-11.242,6.134-20.383V17.873h11.665
		v47.861c0,12.104-3.127,21.347-9.381,27.72c-6.252,6.372-14.992,9.56-26.214,9.56C162.636,103.014,153.899,99.809,147.646,93.395z"
		/>
	<path fill="#FFFFFF" d="M234.107,18.355h12.025v84.177h-12.025V18.355z"/>
	<path fill="#FFFFFF" d="M286.238,97.902c-6.775-3.729-12.086-8.857-15.938-15.396c-3.85-6.527-5.77-13.889-5.77-22.067
		c0-8.176,1.924-15.53,5.77-22.065c3.852-6.533,9.184-11.665,15.992-15.392c6.813-3.729,14.436-5.594,22.85-5.594
		c6.572,0,12.586,1.104,18.041,3.307c5.447,2.207,10.104,5.474,13.945,9.803l-7.813,7.576c-6.334-6.655-14.231-9.982-23.69-9.982
		c-6.254,0-11.901,1.405-16.955,4.21c-5.051,2.808-9,6.675-11.844,11.604c-2.849,4.93-4.271,10.443-4.271,16.533
		c0,6.095,1.422,11.605,4.271,16.54c2.844,4.933,6.793,8.799,11.844,11.604c5.054,2.808,10.701,4.209,16.955,4.209
		c9.379,0,17.274-3.366,23.69-10.103l7.813,7.574c-3.848,4.329-8.521,7.615-14.008,9.858c-5.494,2.246-11.527,3.367-18.102,3.367
		C300.609,103.494,293.012,101.631,286.238,97.902z"/>
	<path fill="#FFFFFF" d="M385.746,65.133l-15.395,15.633v21.771H358.33v-84.18h12.021v47.018l45.695-47.018h13.709L393.8,56.235
		l38.242,46.298h-14.068L385.746,65.133z"/>
	<path fill="#FFFFFF" d="M481.178,16.186c-24.439,0-44.258,19.815-44.258,44.258s19.814,44.258,44.258,44.258
		c24.441,0,44.256-19.813,44.256-44.258C525.434,36.001,505.619,16.186,481.178,16.186z M481.178,92.857
		c-17.9,0-32.414-14.518-32.414-32.418c0-17.899,14.514-32.412,32.414-32.412s32.412,14.512,32.412,32.412
		C513.59,78.346,499.078,92.857,481.178,92.857z"/>
</g>
<g>
	<path fill="#FFFFFF" d="M120,60.001C120,93.138,93.138,120,60,120C26.864,120,0,93.138,0,60.001C0,26.862,26.864,0,60,0
		C93.138,0,120,26.862,120,60.001z"/>
	<path fill="#2962FF" d="M60,14.384c-26.214,0-47.468,21.253-47.468,47.466c0,26.22,21.254,47.474,47.468,47.474
		c26.219,0,47.468-21.254,47.468-47.474C107.468,35.638,86.219,14.384,60,14.384z M59.675,92.576
		c-16.97,0-30.722-13.752-30.722-30.728c0-16.965,13.752-30.723,30.722-30.723c16.97,0,30.724,13.756,30.724,30.723
		C90.399,78.824,76.645,92.576,59.675,92.576z"/>
	<path fill="#2962FF" d="M75.69,117.923c6.124-1.655,11.86-4.254,17.042-7.634L60.393,77.951L48.055,90.289L75.69,117.923z"/>
</g>
</svg>
